<?xml version="1.0" encoding="UTF-8"?>
<svg version="1.1" xmlns="http://www.w3.org/2000/svg" viewBox="0 200 1024 640">
<path d="M0 0 C0.763125 0.825 1.52625 1.65 2.3125 2.5 C2.77011719 2.94085938 3.22773437 3.38171875 3.69921875 3.8359375 C11.5838055 11.98955215 16.42950876 24.29403843 17.3125 35.5 C17.39371094 36.50289063 17.47492188 37.50578125 17.55859375 38.5390625 C18.061263 51.06009653 14.56380157 62.26139564 8.2890625 73.01171875 C7.02943698 75.4044662 7.02943698 75.4044662 8.04220581 77.43901062 C9.39033009 79.62627547 10.80624818 81.18875304 12.66064453 82.96411133 C13.34119904 83.62192093 14.02175354 84.27973053 14.72293091 84.95747375 C15.45631683 85.65857773 16.18970276 86.3596817 16.9453125 87.08203125 C18.4890149 88.5858358 20.03196076 90.09041728 21.57421875 91.59570312 C24.00711698 93.96048808 26.44478742 96.31947407 28.89599609 98.6652832 C31.2617328 100.93421166 33.60474717 103.2246834 35.9453125 105.51953125 C36.68274689 106.21456253 37.42018127 106.90959381 38.17996216 107.62568665 C43.17570838 112.56968532 43.17570838 112.56968532 43.87060547 117.2956543 C43.16477341 121.34816776 42.04395373 123.41835989 39.3125 126.5 C36.882593 128.18711552 35.28131516 128.71873285 32.3125 129.5 C28.08855438 127.89087786 25.43050966 124.69405867 22.3125 121.5 C21.343125 120.71625 20.37375 119.9325 19.375 119.125 C16.39128519 116.70410478 14.02047833 113.93459686 11.609375 110.953125 C10.35469297 109.36712389 10.35469297 109.36712389 8.3125 108.5 C8.3125 107.84 8.3125 107.18 8.3125 106.5 C7.6525 106.5 6.9925 106.5 6.3125 106.5 C4.83203125 104.9609375 4.83203125 104.9609375 3.125 102.875 C0.7481436 100.10282445 -1.63699548 97.42566066 -4.3125 94.9375 C-4.84101562 94.44121094 -5.36953125 93.94492187 -5.9140625 93.43359375 C-8.52289482 92.06022167 -9.89411981 92.66037127 -12.6875 93.5 C-16.06339336 94.74654658 -19.38990292 96.09376228 -22.7265625 97.44140625 C-25.6875 98.5 -25.6875 98.5 -28.6875 98.5 C-29.0175 99.16 -29.3475 99.82 -29.6875 100.5 C-50.34602891 101.09464849 -68.90506456 98.73251483 -84.55322266 83.96850586 C-95.7043535 72.73980522 -101.08050081 58.87148009 -101.71875 43.234375 C-101.58302608 27.01536614 -95.55119398 11.6879153 -84.4375 -0.25 C-59.7632648 -23.22066885 -24.29750018 -22.60232575 0 0 Z M-74.15234375 18.21875 C-80.34610072 27.42270437 -82.71363762 37.65249037 -81.27734375 48.63671875 C-78.95719885 59.48721677 -73.77078704 68.0609969 -64.6875 74.5 C-54.88419897 80.69258025 -43.28219526 81.95901389 -31.94921875 80.03515625 C-21.75682453 77.35628436 -13.73415678 71.05013685 -7.6875 62.5 C-2.52893418 52.34686901 -0.84043512 41.40398467 -3.8125 30.25 C-7.44885991 19.84597027 -14.96490031 11.41366064 -24.625 6.125 C-42.46334207 -1.88984157 -61.93112842 3.19503375 -74.15234375 18.21875 Z " fill="#2B75F9" transform="translate(605.6875,467.5)"/>
<path d="M0 0 C0.72896484 -0.00386719 1.45792969 -0.00773437 2.20898438 -0.01171875 C5.42107736 -0.0058304 7.9946444 0.10238147 11.0625 1.125 C11.89958986 8.15826396 12.20663345 15.07561757 12.19189453 22.1550293 C12.19452301 23.73506241 12.19452301 23.73506241 12.19720459 25.34701538 C12.20157388 28.79776704 12.19870318 32.24846665 12.1953125 35.69921875 C12.1959868 38.11196401 12.19695788 40.5247092 12.19821167 42.93745422 C12.19968184 47.97987519 12.19755542 53.02227838 12.19287109 58.06469727 C12.18716502 64.52071129 12.1904627 70.97668382 12.19644356 77.43269634 C12.20005969 82.40926933 12.19890589 87.38583249 12.19631577 92.36240578 C12.19564989 94.74299945 12.19646304 97.12359401 12.19879532 99.50418663 C12.2013401 102.83053318 12.19745585 106.15681273 12.19189453 109.4831543 C12.19391876 110.46150742 12.19594299 111.43986053 12.19802856 112.44786072 C12.19520874 113.36017456 12.19238892 114.2724884 12.18948364 115.21244812 C12.1889181 116.38899224 12.1889181 116.38899224 12.18834114 117.58930492 C12.02969533 120.786013 11.51513917 123.9565258 11.0625 127.125 C4.1325 127.125 -2.7975 127.125 -9.9375 127.125 C-9.9375 125.145 -9.9375 123.165 -9.9375 121.125 C-10.5975 121.125 -11.2575 121.125 -11.9375 121.125 C-11.6075 120.465 -11.2775 119.805 -10.9375 119.125 C-13.69534967 120.44583266 -16.20927646 121.92773458 -18.75 123.625 C-28.33206811 129.58094727 -40.14196268 130.09625978 -51.0625 128.125 C-63.09351499 125.15437902 -72.91876747 118.30216216 -79.9375 108.125 C-80.741875 107.073125 -80.741875 107.073125 -81.5625 106 C-82.9375 104.125 -82.9375 104.125 -83.9375 102.125 C-84.453125 101.63 -84.96875 101.135 -85.5 100.625 C-86.9375 99.125 -86.9375 99.125 -86.9375 97.125 C-86.2775 97.125 -85.6175 97.125 -84.9375 97.125 C-85.453125 95.990625 -85.96875 94.85625 -86.5 93.6875 C-90.16515908 82.60475708 -87.43544867 68.57276684 -82.9375 58.125 C-81.15925673 54.93002445 -79.1368889 52.04046901 -76.9375 49.125 C-76.26654297 48.11759766 -76.26654297 48.11759766 -75.58203125 47.08984375 C-73.29971991 43.66988799 -71.6209625 41.82505961 -67.9375 40.125 C-66.70144413 39.32301943 -65.47241105 38.51012882 -64.25 37.6875 C-53.71248906 31.04769292 -41.61096849 29.84596286 -29.5625 32.25 C-23.20810537 33.78866599 -18.30947436 36.48556909 -12.9375 40.125 C-12.2775 40.455 -11.6175 40.785 -10.9375 41.125 C-10.6075 27.925 -10.2775 14.725 -9.9375 1.125 C-6.79444562 -0.44652719 -3.446226 -0.01818589 0 0 Z M-58.9375 60.125 C-59.63875 60.846875 -60.34 61.56875 -61.0625 62.3125 C-65.78220757 69.39206136 -66.97413848 77.77365404 -65.9375 86.125 C-63.9875591 94.28831189 -60.77036308 100.91423975 -53.6796875 105.625 C-45.50038848 110.1377167 -37.47544251 111.11920814 -28.390625 108.9765625 C-21.26396428 106.50265798 -15.3863734 101.88423783 -11.9375 95.125 C-8.55127297 86.74917343 -8.465046 75.94506846 -11.625 67.4375 C-13.45930281 63.58158881 -15.62509891 60.8718692 -18.9375 58.125 C-19.68 57.42375 -20.4225 56.7225 -21.1875 56 C-32.70065872 48.15011905 -49.85504732 48.84074062 -58.9375 60.125 Z " fill="#212021" transform="translate(927.9375,446.875)"/>
<path d="M0 0 C10.38924098 8.56351662 18.47322983 19.35586679 20.5 33 C21.46996575 48.10908194 18.21372385 60.73938163 8.75 72.75 C-0.88974923 83.21816518 -13.56668966 87.94812407 -27.5 89 C-40.68840372 89.1391508 -52.15216534 85.23540688 -62.5 77 C-72.70173088 66.95668109 -78.39076258 54.15587192 -78.53125 39.80859375 C-77.85820071 25.55677496 -72.12233838 12.64391905 -61.69921875 2.81640625 C-44.27748135 -11.57277295 -18.60670927 -13.43432181 0 0 Z M-49.6875 20.375 C-56.01023316 28.1211757 -57.42331237 36.2154536 -56.5 46 C-54.48798255 54.25583245 -51.3118299 60.53045567 -44.1875 65.375 C-43.300625 65.91125 -42.41375 66.4475 -41.5 67 C-39.55270463 66.15811388 -39.55270463 66.15811388 -38.5 65 C-38.5 65.99 -38.5 66.98 -38.5 68 C-30.13358247 70.46877894 -22.4887236 70.37578757 -14.625 66.1875 C-6.8373731 60.73616117 -2.45667485 54.29420552 -0.5 45 C0.21202978 36.3132367 -2.04223417 28.08098289 -6.921875 20.8203125 C-11.49682844 15.54326225 -17.67171276 12.24150677 -24.5 11 C-34.72807779 10.35059824 -42.64242396 12.53367458 -49.6875 20.375 Z " fill="#212021" transform="translate(245.5,487)"/>
<path d="M0 0 C1.06845406 -0.00021904 1.06845406 -0.00021904 2.15849304 -0.0004425 C4.51763941 0.00025528 6.87670724 0.00804142 9.23583984 0.01586914 C10.86965898 0.0177338 12.50347868 0.01915747 14.13729858 0.02015686 C18.44125914 0.0239783 22.74518605 0.03380541 27.0491333 0.04486084 C31.43948918 0.05508297 35.82985049 0.0596562 40.22021484 0.06469727 C48.8374178 0.075428 57.45459339 0.09249996 66.07177734 0.11352539 C66.22517578 0.89083008 66.37857422 1.66813477 66.53662109 2.46899414 C66.98906316 4.70478452 67.49947616 6.90607796 68.07177734 9.11352539 C67.74177734 9.11352539 67.41177734 9.11352539 67.07177734 9.11352539 C67.07177734 12.74352539 67.07177734 16.37352539 67.07177734 20.11352539 C64.11561767 21.09891195 62.2361746 21.22953413 59.15722656 21.21118164 C58.15964325 21.20787842 57.16205994 21.2045752 56.13424683 21.20117188 C55.05917877 21.19287354 53.98411072 21.1845752 52.87646484 21.17602539 C51.77327911 21.17223877 50.67009338 21.16845215 49.53347778 21.16455078 C46.00453841 21.1523141 42.47567988 21.13367684 38.94677734 21.11352539 C34.29834219 21.08706012 29.6499465 21.06700876 25.00146484 21.05102539 C23.92234833 21.04272705 22.84323181 21.03442871 21.73141479 21.02587891 C20.24449631 21.02092407 20.24449631 21.02092407 18.72753906 21.01586914 C17.85056366 21.01063232 16.97358826 21.00539551 16.07003784 21 C14.07233154 20.89101758 14.07233154 20.89101758 13.07177734 22.11352539 C12.98386759 24.40503956 12.96483696 26.69925063 12.97412109 28.99243164 C12.97624352 30.02242531 12.97624352 30.02242531 12.97840881 31.07322693 C12.98402255 33.2742034 12.99657727 35.47507948 13.00927734 37.67602539 C13.01429058 39.16495622 13.01885379 40.65388863 13.02294922 42.14282227 C13.03399641 45.79975614 13.05127021 49.45663097 13.07177734 53.11352539 C13.97046791 53.11019447 13.97046791 53.11019447 14.88731384 53.10679626 C21.09975592 53.08474374 27.31218696 53.06961893 33.5246582 53.05859375 C35.84595186 53.05355206 38.16724232 53.04671888 40.48852539 53.03808594 C43.81706529 53.02601315 47.14556337 53.0202956 50.47412109 53.01586914 C51.51890121 53.01070786 52.56368134 53.00554657 53.64012146 53.00022888 C54.60104202 53.00015335 55.56196259 53.00007782 56.55200195 53 C57.40249619 52.99777939 58.25299042 52.99555878 59.1292572 52.99327087 C61.07177734 53.11352539 61.07177734 53.11352539 62.07177734 54.11352539 C62.32144301 57.25175989 62.25699525 60.40402152 62.25927734 63.55102539 C62.27152344 64.4359668 62.28376953 65.3209082 62.29638672 66.23266602 C62.29832031 67.07893555 62.30025391 67.92520508 62.30224609 68.79711914 C62.30635498 69.57627686 62.31046387 70.35543457 62.31469727 71.15820312 C62.07177734 73.11352539 62.07177734 73.11352539 60.07177734 75.11352539 C60.07177734 74.45352539 60.07177734 73.79352539 60.07177734 73.11352539 C44.56177734 73.11352539 29.05177734 73.11352539 13.07177734 73.11352539 C13.19153936 80.17948451 13.31413009 87.24527337 13.4440918 94.31103516 C13.48745144 96.71562762 13.52912575 99.12025108 13.5690918 101.52490234 C13.62676923 104.97771555 13.69047119 108.43037258 13.75537109 111.88305664 C13.77208359 112.96126175 13.78879608 114.03946686 13.80601501 115.15034485 C13.82596024 116.15115585 13.84590546 117.15196686 13.86645508 118.18310547 C13.8897715 119.50547966 13.8897715 119.50547966 13.91355896 120.85456848 C13.98925254 123.28123619 13.98925254 123.28123619 15.07177734 126.11352539 C13.13916529 126.51295236 11.20017488 126.88152678 9.25927734 127.23852539 C7.64085937 127.55176758 7.64085937 127.55176758 5.98974609 127.87133789 C2.07177734 128.11352539 2.07177734 128.11352539 -8.92822266 126.11352539 C-8.92822266 84.86352539 -8.92822266 43.61352539 -8.92822266 1.11352539 C-5.96414707 -0.3685124 -3.307431 -0.00568287 0 0 Z " fill="#212122" transform="translate(432.92822265625,446.886474609375)"/>
<path d="M0 0 C2.71576673 2.78315548 4.7511142 5.25334261 6 9 C6.2371875 9.63035156 6.474375 10.26070313 6.71875 10.91015625 C6.9765625 11.62042969 7.234375 12.33070313 7.5 13.0625 C7.7578125 13.75472656 8.015625 14.44695312 8.28125 15.16015625 C10.42908585 23.64644245 10.1358894 32.53499366 10.09765625 41.2265625 C10.0962413 42.45539154 10.09482635 43.68422058 10.09336853 44.95028687 C10.08780959 48.84188358 10.0752648 52.73342093 10.0625 56.625 C10.05747969 59.27734291 10.05291772 61.92968674 10.04882812 64.58203125 C10.03785364 71.05470746 10.02115684 77.52734949 10 84 C7.12819905 84.7576344 4.64730928 85.11890935 1.671875 85.09765625 C0.87265625 85.09443359 0.0734375 85.09121094 -0.75 85.08789062 C-1.9875 85.07532227 -1.9875 85.07532227 -3.25 85.0625 C-4.09046875 85.05798828 -4.9309375 85.05347656 -5.796875 85.04882812 C-7.86461401 85.03707961 -9.93231624 85.01914522 -12 85 C-12.73922301 81.70370768 -13.11715639 78.68392509 -13.08178711 75.30834961 C-13.0752562 74.40648422 -13.06872528 73.50461884 -13.06199646 72.57542419 C-13.05056107 71.61080765 -13.03912567 70.6461911 -13.02734375 69.65234375 C-13.01468735 67.58138194 -13.00232715 65.5104183 -12.99023438 63.43945312 C-12.96553978 60.19663705 -12.9376702 56.95391793 -12.90405273 53.71118164 C-12.58111401 37.23711639 -12.58111401 37.23711639 -15 21 C-15.66 21 -16.32 21 -17 21 C-17.061875 20.2575 -17.12375 19.515 -17.1875 18.75 C-18.28360788 15.04009641 -19.75128471 14.04810312 -23 12 C-30.35667747 9.27530464 -36.62982833 9.34404379 -43.921875 12.03515625 C-48.54307 14.18071107 -50.89852216 17.18899518 -52.61669922 21.86352539 C-54.53476563 27.88925493 -54.35739267 33.78991678 -54.2578125 40.05859375 C-54.25119598 41.28409439 -54.24457947 42.50959503 -54.23776245 43.77223206 C-54.21447663 47.66091748 -54.17074966 51.54901962 -54.125 55.4375 C-54.08995389 59.35090211 -54.05920167 63.26427402 -54.03366089 67.17774963 C-54.01665751 69.60727608 -53.99349432 72.03676858 -53.96365356 74.46617126 C-53.95389496 75.55813309 -53.94413635 76.65009491 -53.93408203 77.77514648 C-53.92281281 78.7383934 -53.91154358 79.70164032 -53.89993286 80.69407654 C-54 83 -54 83 -55 85 C-58.45826342 85.05789006 -61.91640293 85.09355821 -65.375 85.125 C-66.35984375 85.14175781 -67.3446875 85.15851563 -68.359375 85.17578125 C-69.30039062 85.18222656 -70.24140625 85.18867187 -71.2109375 85.1953125 C-72.51490479 85.21102295 -72.51490479 85.21102295 -73.84521484 85.22705078 C-76 85 -76 85 -78 83 C-78.15866365 80.07561171 -78.19192058 77.25008472 -78.13525391 74.32763672 C-78.12579239 73.43001617 -78.11633087 72.53239563 -78.10658264 71.60757446 C-78.07282102 68.63140863 -78.02472883 65.65565224 -77.9765625 62.6796875 C-77.95040403 60.6198942 -77.92513634 58.56008942 -77.90072632 56.50027466 C-77.83399057 51.0716908 -77.75511615 45.64334775 -77.67376709 40.21496582 C-77.59292963 34.67856102 -77.52349814 29.1420147 -77.453125 23.60546875 C-77.31328659 12.73680949 -77.16063228 1.86837043 -77 -9 C-75.40868826 -9.17219515 -73.81697286 -9.34066248 -72.22509766 -9.50756836 C-71.33875641 -9.60178574 -70.45241516 -9.69600311 -69.53921509 -9.79307556 C-66.4287567 -10.04655147 -63.47604025 -9.88702747 -60.375 -9.5625 C-59.35148438 -9.46066406 -58.32796875 -9.35882813 -57.2734375 -9.25390625 C-56.14808594 -9.12822266 -56.14808594 -9.12822266 -55 -9 C-54.67 -6.03 -54.34 -3.06 -54 0 C-53.05125 -0.9075 -52.1025 -1.815 -51.125 -2.75 C-35.90269921 -15.78448023 -14.21783845 -12.54515157 0 0 Z " fill="#212021" transform="translate(818,489)"/>
<path d="M0 0 C0.15404179 11.48318713 0.30222124 22.96643362 0.4429636 34.44979191 C0.50850244 39.78224383 0.5760432 45.11465459 0.64819336 50.44702148 C0.71777688 55.59518305 0.78205691 60.74338627 0.84269524 65.89166069 C0.86672923 67.85361564 0.8926585 69.81554834 0.92053413 71.77745247 C0.95931746 74.53006643 0.991298 77.28268314 1.02172852 80.03540039 C1.03467453 80.84244919 1.04762054 81.64949799 1.06095886 82.48100281 C1.10386206 87.10368407 0.77342508 91.4403208 0 96 C-1.485 95.01 -1.485 95.01 -3 94 C-5.01347173 93.7419196 -5.01347173 93.7419196 -7.1953125 93.83984375 C-7.99324219 93.85080078 -8.79117188 93.86175781 -9.61328125 93.87304688 C-10.85658203 93.90495117 -10.85658203 93.90495117 -12.125 93.9375 C-15.08738437 93.99912125 -18.03608798 94.02062364 -21 94 C-22 93 -22 93 -22.0625 90.4375 C-22.041875 89.633125 -22.02125 88.82875 -22 88 C-26.74043603 88.90726048 -30.70858853 91.3795049 -34.9296875 93.625 C-44.55836103 97.93707771 -55.0157656 95.89210533 -65 94 C-65 93.34 -65 92.68 -65 92 C-65.99 91.7215625 -65.99 91.7215625 -67 91.4375 C-76.09619054 87.0789087 -80.17088202 80.06268754 -84 71 C-84.96070434 68.11788698 -85.10581883 66.30149956 -85.0625 63.3125 C-85.05347656 62.50425781 -85.04445313 61.69601562 -85.03515625 60.86328125 C-85.01775391 59.94095703 -85.01775391 59.94095703 -85 59 C-85.66 58.67 -86.32 58.34 -87 58 C-86.88239798 50.38269826 -86.75756641 42.76553971 -86.62768555 35.1484375 C-86.58434872 32.55666801 -86.54267275 29.96487021 -86.50268555 27.37304688 C-86.44495298 23.64965272 -86.3812667 19.92640096 -86.31640625 16.203125 C-86.29969376 15.04258606 -86.28298126 13.88204712 -86.26576233 12.68634033 C-86.24581711 11.60552185 -86.22587189 10.52470337 -86.20532227 9.41113281 C-86.18977798 8.46071106 -86.1742337 7.51028931 -86.15821838 6.53106689 C-86 4 -86 4 -85 0 C-78.07 0 -71.14 0 -64 0 C-63.9906543 1.80073975 -63.98130859 3.60147949 -63.97167969 5.45678711 C-63.93602131 11.43605576 -63.88214108 17.41493283 -63.81609726 23.39392757 C-63.77674804 27.01564669 -63.7444988 30.63712725 -63.72900391 34.2590332 C-63.71375345 37.76067303 -63.67916279 41.26165647 -63.63169098 44.7630024 C-63.60984183 46.73520513 -63.6075335 48.70759352 -63.60565186 50.67991638 C-63.46928665 59.12094367 -62.50392947 65.85899244 -56.9375 72.4375 C-50.33923457 75.94721565 -43.1950604 76.77890533 -36 74.76171875 C-30.09196505 72.51158825 -25.82429202 68.64858405 -23 63 C-22.87972528 60.99902482 -22.82262742 58.9941379 -22.79467773 56.98974609 C-22.77473251 55.72858978 -22.75478729 54.46743347 -22.73423767 53.1680603 C-22.71725335 51.78652063 -22.70037454 50.40497966 -22.68359375 49.0234375 C-22.6630244 47.61381418 -22.64202793 46.20419703 -22.62062073 44.79458618 C-22.56539805 41.08252965 -22.51598969 37.37041743 -22.46777344 33.65826416 C-22.41755982 29.87108397 -22.36187303 26.08398474 -22.30664062 22.296875 C-22.19905667 14.86465188 -22.09761227 7.43236148 -22 0 C-14.50280391 -1.14364008 -7.53181418 -0.75667376 0 0 Z " fill="#201F20" transform="translate(723,480)"/>
<path d="M0 0 C7.88654227 6.60875755 10.21827046 12.69046104 12.25 22.75 C9.953463 23.8982685 8.66686833 23.86561175 6.1171875 23.84765625 C5.31152344 23.84443359 4.50585938 23.84121094 3.67578125 23.83789062 C2.83402344 23.82951172 1.99226563 23.82113281 1.125 23.8125 C0.27550781 23.80798828 -0.57398438 23.80347656 -1.44921875 23.79882812 C-3.54950909 23.78702874 -5.6497633 23.76909306 -7.75 23.75 C-8.20503906 22.80769531 -8.66007812 21.86539062 -9.12890625 20.89453125 C-10.9484566 17.36504202 -12.69311774 14.55806089 -16.5 13.0625 C-17.2425 12.959375 -17.985 12.85625 -18.75 12.75 C-20.008125 12.523125 -21.26625 12.29625 -22.5625 12.0625 C-26.71146575 11.59032293 -29.86718187 12.07505885 -33.75 13.75 C-36.49673277 16.75423897 -36.75 18.29220094 -36.75 22.375 C-36.09416041 25.83840069 -36.09416041 25.83840069 -33.55322266 27.3605957 C-30.65955139 28.79483044 -28.03887535 29.61694321 -24.8984375 30.35546875 C-23.80015625 30.61650391 -22.701875 30.87753906 -21.5703125 31.14648438 C-20.43335938 31.40751953 -19.29640625 31.66855469 -18.125 31.9375 C-16.9803125 32.21013672 -15.835625 32.48277344 -14.65625 32.76367188 C-8.76315548 34.22844834 -8.76315548 34.22844834 -2.75 34.75 C-2.75 35.41 -2.75 36.07 -2.75 36.75 C-2.028125 36.9975 -1.30625 37.245 -0.5625 37.5 C6.10747345 40.46443264 9.65362095 45.04934484 12.25 51.75 C13.92833042 59.35365548 13.85957202 66.74318373 10.25 73.75 C4.07447217 82.62975896 -3.31487595 87.67372177 -13.8125 90.0625 C-26.37252817 92.11991491 -36.65698492 89.82196615 -47.75 83.75 C-48.801875 83.28980469 -48.801875 83.28980469 -49.875 82.8203125 C-52.10125119 81.54949411 -53.00499769 80.27281008 -54.375 78.125 C-55.53450952 76.24804324 -55.53450952 76.24804324 -56.75 74.75 C-57.41 74.75 -58.07 74.75 -58.75 74.75 C-59.48834773 70.42539184 -60.13536138 66.0937906 -60.75 61.75 C-57.98132003 61.05259196 -55.21063138 60.36677147 -52.4375 59.6875 C-51.65181641 59.48833984 -50.86613281 59.28917969 -50.05664062 59.08398438 C-49.29931641 58.90029297 -48.54199219 58.71660156 -47.76171875 58.52734375 C-47.06522217 58.35452881 -46.36872559 58.18171387 -45.65112305 58.00366211 C-43.75 57.75 -43.75 57.75 -40.75 58.75 C-39.58203125 60.59765625 -39.58203125 60.59765625 -38.5625 62.8125 C-38.21832031 63.54597656 -37.87414062 64.27945313 -37.51953125 65.03515625 C-37.26558594 65.60105469 -37.01164062 66.16695312 -36.75 66.75 C-36.09 66.75 -35.43 66.75 -34.75 66.75 C-33.75 67.75 -32.75 68.75 -31.75 69.75 C-28.41749498 70.86083501 -25.81961042 70.91759585 -22.3125 70.9375 C-21.17941406 70.95167969 -20.04632813 70.96585938 -18.87890625 70.98046875 C-15.12805587 70.70418888 -13.0855409 69.60856201 -10 67.625 C-7.94036002 64.53554003 -8.13579821 61.27808933 -8.75 57.75 C-11.63834182 53.10353708 -16.71579642 52.06848189 -21.75 50.75 C-23.81400465 50.27976041 -25.88135767 49.82614609 -27.94897461 49.37207031 C-39.37220477 46.83551271 -48.92724943 43.98412585 -55.75 33.75 C-59.02555354 27.19889291 -58.81315512 19.09811344 -57.09765625 12.08203125 C-54.23380806 4.94084757 -49.31360104 -0.26878363 -42.375 -3.5625 C-40.84569881 -4.15779845 -39.30366503 -4.72154251 -37.75 -5.25 C-36.73679687 -5.60578125 -36.73679687 -5.60578125 -35.703125 -5.96875 C-23.84579405 -9.35655884 -9.9138344 -7.24847564 0 0 Z " fill="#212021" transform="translate(330.75,485.25)"/>
<path d="M0 0 C0.76828125 -0.01224609 1.5365625 -0.02449219 2.328125 -0.03710938 C3.07320312 -0.03904297 3.81828125 -0.04097656 4.5859375 -0.04296875 C5.60373291 -0.04913208 5.60373291 -0.04913208 6.64208984 -0.05541992 C8.97048188 0.22982387 10.56133632 1.10420665 12.625 2.1875 C12.64815275 15.02641035 12.6659301 27.86531575 12.67681217 40.70424271 C12.68203456 46.66562893 12.68912057 52.62700089 12.70043945 58.58837891 C12.71129114 64.33957815 12.7172817 70.09076366 12.71987724 75.84197235 C12.72172736 78.0380449 12.72534009 80.23411669 12.73073006 82.43018341 C12.7379707 85.50197484 12.73898965 88.57370924 12.73852539 91.64550781 C12.74212067 92.55684982 12.74571594 93.46819183 12.74942017 94.40715027 C12.7480455 95.24565018 12.74667084 96.08415009 12.74525452 96.94805908 C12.74617631 97.67443195 12.7470981 98.40080482 12.74804783 99.149189 C12.625 101.1875 12.625 101.1875 11.625 105.1875 C30.105 105.1875 48.585 105.1875 67.625 105.1875 C68.12 115.5825 68.12 115.5825 68.625 126.1875 C66.93996301 127.87253699 64.86240116 127.30715983 62.61405945 127.31192017 C61.89764786 127.30832489 61.18123627 127.30472961 60.44311523 127.30102539 C59.3163588 127.30124443 59.3163588 127.30124443 58.1668396 127.3014679 C55.67239541 127.30076863 53.17802497 127.29297564 50.68359375 127.28515625 C48.95866436 127.28329212 47.23373443 127.28186819 45.50880432 127.28086853 C40.95987497 127.27704297 36.41097733 127.26721238 31.86206055 127.25616455 C27.22379994 127.24595124 22.58553423 127.24137108 17.94726562 127.23632812 C8.83982978 127.22559014 -0.26758248 127.20851327 -9.375 127.1875 C-10.65332574 121.3030781 -10.50808861 115.47904178 -10.48852539 109.49072266 C-10.48867142 108.31941803 -10.48881744 107.1481134 -10.4889679 105.9413147 C-10.48827243 102.07804499 -10.48049709 98.21482377 -10.47265625 94.3515625 C-10.47079077 91.66970742 -10.46931827 88.98785501 -10.46836853 86.30599976 C-10.46526527 79.9738163 -10.45706546 73.64165018 -10.44701904 67.30947435 C-10.43582665 60.09786661 -10.43033958 52.88625802 -10.42532361 45.67464375 C-10.41488199 30.84558698 -10.39730205 16.01654379 -10.375 1.1875 C-7.12230549 -0.43884726 -3.570215 0.00296529 0 0 Z " fill="#202020" transform="translate(94.375,446.8125)"/>
<path d="M0 0 C0.98613281 0.00322266 1.97226562 0.00644531 2.98828125 0.00976562 C4.02082031 0.01814453 5.05335938 0.02652344 6.1171875 0.03515625 C7.67759766 0.04192383 7.67759766 0.04192383 9.26953125 0.04882812 C11.84377437 0.06063658 14.41798803 0.0785724 16.9921875 0.09765625 C16.9921875 7.02765625 16.9921875 13.95765625 16.9921875 21.09765625 C24.5821875 21.09765625 32.1721875 21.09765625 39.9921875 21.09765625 C39.9921875 27.36765625 39.9921875 33.63765625 39.9921875 40.09765625 C36.6379236 40.93622223 34.76424651 41.17838957 31.4453125 40.9765625 C30.60097656 40.92822266 29.75664062 40.87988281 28.88671875 40.83007812 C28.01402344 40.77400391 27.14132812 40.71792969 26.2421875 40.66015625 C24.90994141 40.5818457 24.90994141 40.5818457 23.55078125 40.50195312 C21.36419554 40.37263892 19.17810856 40.23768983 16.9921875 40.09765625 C17.0844827 47.14542351 17.19179206 54.1928472 17.30957031 61.24023438 C17.34786655 63.63796799 17.38271826 66.03575918 17.4140625 68.43359375 C17.45969855 71.87911567 17.5176962 75.32424097 17.578125 78.76953125 C17.58967621 79.84257507 17.60122742 80.9156189 17.61312866 82.0211792 C17.63299835 83.02191467 17.65286804 84.02265015 17.67333984 85.05371094 C17.68666351 85.93307312 17.69998718 86.8124353 17.7137146 87.71844482 C18.01727875 90.31203043 18.55449714 91.92212512 19.9921875 94.09765625 C26.51951247 96.95336093 33.30890182 96.32541814 39.9921875 94.09765625 C41.19179419 97.69647631 41.16105479 100.67903607 41.1796875 104.47265625 C41.19386719 105.77976562 41.20804687 107.086875 41.22265625 108.43359375 C41.0086679 111.83564588 40.47363561 114.06449372 38.9921875 117.09765625 C38.0021875 117.09765625 37.0121875 117.09765625 35.9921875 117.09765625 C35.0846875 117.10925781 34.1771875 117.12085938 33.2421875 117.1328125 C26.09219258 117.19296871 19.09786568 116.89508707 11.9921875 116.09765625 C11.9921875 115.43765625 11.9921875 114.77765625 11.9921875 114.09765625 C11.1053125 113.82953125 10.2184375 113.56140625 9.3046875 113.28515625 C4.98301747 111.73587831 1.8797575 110.56573289 -0.5546875 106.5390625 C-0.95171875 105.58902344 -1.34875 104.63898438 -1.7578125 103.66015625 C-2.16515625 102.71269531 -2.5725 101.76523437 -2.9921875 100.7890625 C-4.54607766 96.67125358 -5.13966877 93.18627992 -5.21313477 88.77832031 C-5.23307999 87.71752258 -5.25302521 86.65672485 -5.27357483 85.56378174 C-5.29028732 84.42511658 -5.30699982 83.28645142 -5.32421875 82.11328125 C-5.34499985 80.94255066 -5.36578094 79.77182007 -5.38719177 78.56561279 C-5.45256878 74.82635356 -5.51151741 71.0870242 -5.5703125 67.34765625 C-5.61350897 64.81249275 -5.65712362 62.27733634 -5.70117188 59.7421875 C-5.80823809 53.52741785 -5.9100266 47.31257847 -6.0078125 41.09765625 C-7.2659375 41.07703125 -8.5240625 41.05640625 -9.8203125 41.03515625 C-10.52800781 41.02355469 -11.23570312 41.01195312 -11.96484375 41 C-14.21086711 41.01502408 -14.21086711 41.01502408 -17.0078125 42.09765625 C-17.90124989 34.86768599 -17.95064122 28.32600978 -17.0078125 21.09765625 C-13.3778125 20.76765625 -9.7478125 20.43765625 -6.0078125 20.09765625 C-5.98091146 17.3059257 -5.96102197 14.51445277 -5.9453125 11.72265625 C-5.93693359 10.92859375 -5.92855469 10.13453125 -5.91992188 9.31640625 C-5.77741099 5.07373403 -5.77741099 5.07373403 -7.0078125 1.09765625 C-4.50284246 -0.15482877 -2.79927976 -0.01608781 0 0 Z " fill="#1F1F20" transform="translate(367.0078125,458.90234375)"/>
<path d="M0 0 C0.763125 0.825 1.52625 1.65 2.3125 2.5 C2.78171875 2.9640625 3.2509375 3.428125 3.734375 3.90625 C8.73697718 9.16671827 12.00928945 15.64413982 14.3125 22.5 C13.87524414 24.68676758 13.87524414 24.68676758 13.3125 26.5 C12.80460938 25.4378125 12.29671875 24.375625 11.7734375 23.28125 C3.8349449 6.89066603 -4.89425584 -4.97921829 -22.6875 -11.5 C-27.94550812 -13.04856533 -33.25404518 -13.85139911 -38.6875 -14.5 C-39.61949219 -14.62632812 -40.55148437 -14.75265625 -41.51171875 -14.8828125 C-54.84404669 -15.8219964 -70.41685679 -8.76929714 -80.296875 -0.25 C-91.48974782 10.34680267 -98.50602683 24.02094808 -99.23022461 39.56567383 C-99.35006503 51.66659719 -96.39477886 63.36640221 -89.6875 73.5 C-89.34332031 74.0878125 -88.99914062 74.675625 -88.64453125 75.28125 C-81.28066638 86.97836387 -68.95817359 93.05469526 -56.0378418 96.26928711 C-42.47373005 99.30635617 -29.3976578 97.80155576 -16.71875 92.3046875 C-14.6875 91.5 -14.6875 91.5 -12.6875 91.5 C-12.6875 92.16 -12.6875 92.82 -12.6875 93.5 C-14.78921867 94.3394882 -16.89396625 95.17139656 -19 96 C-20.17175781 96.4640625 -21.34351563 96.928125 -22.55078125 97.40625 C-25.6875 98.5 -25.6875 98.5 -28.6875 98.5 C-29.0175 99.16 -29.3475 99.82 -29.6875 100.5 C-50.34602891 101.09464849 -68.90506456 98.73251483 -84.55322266 83.96850586 C-95.7043535 72.73980522 -101.08050081 58.87148009 -101.71875 43.234375 C-101.58302608 27.01536614 -95.55119398 11.6879153 -84.4375 -0.25 C-59.7632648 -23.22066885 -24.29750018 -22.60232575 0 0 Z " fill="#2157C5" transform="translate(605.6875,467.5)"/>
<path d="M0 0 C1.60407328 -0.02708567 3.2082785 -0.04643483 4.8125 -0.0625 C5.70582031 -0.07410156 6.59914063 -0.08570313 7.51953125 -0.09765625 C10 0 10 0 13 1 C13.83708986 8.03326396 14.14413345 14.95061757 14.12939453 22.0300293 C14.13114685 23.0833847 14.13289917 24.13674011 14.13470459 25.22201538 C14.13907388 28.67276704 14.13620318 32.12346665 14.1328125 35.57421875 C14.1334868 37.98696401 14.13445788 40.3997092 14.13571167 42.81245422 C14.13718184 47.85487519 14.13505542 52.89727838 14.13037109 57.93969727 C14.12466502 64.39571129 14.1279627 70.85168382 14.13394356 77.30769634 C14.13755969 82.28426933 14.13640589 87.26083249 14.13381577 92.23740578 C14.13314989 94.61799945 14.13396304 96.99859401 14.13629532 99.37918663 C14.1388401 102.70553318 14.13495585 106.03181273 14.12939453 109.3581543 C14.13141876 110.33650742 14.13344299 111.31486053 14.13552856 112.32286072 C14.12007029 117.32416573 13.85543719 122.07013123 13 127 C11.68 127 10.36 127 9 127 C9 126.34 9 125.68 9 125 C4.05 125 -0.9 125 -6 125 C-6 124.67 -6 124.34 -6 124 C-0.39 124 5.22 124 11 124 C10.67 123.01 10.34 122.02 10 121 C9.91042799 119.40115997 9.87802914 117.79881019 9.87974548 116.19746399 C9.87837082 115.20888397 9.87699615 114.22030396 9.87557983 113.20176697 C9.87917511 112.11851639 9.88277039 111.03526581 9.88647461 109.91918945 C9.88632858 108.77758362 9.88618256 107.63597778 9.8860321 106.45977783 C9.88673007 102.67759313 9.89451709 98.89545737 9.90234375 95.11328125 C9.90420834 92.4944003 9.90563205 89.875519 9.90663147 87.25663757 C9.90974047 81.06247633 9.91794806 74.86833273 9.92798096 68.67417926 C9.93915546 61.62225115 9.94465592 54.5703222 9.94967639 47.51838744 C9.96013102 33.01224897 9.9779234 18.50612532 10 4 C4.72 4 -0.56 4 -6 4 C-6 3.67 -6 3.34 -6 3 C-4.02 3 -2.04 3 0 3 C0 2.01 0 1.02 0 0 Z " fill="#282728" transform="translate(926,447)"/>
<path d="M0 0 C0.04627664 9.7442238 0.08184536 19.48842159 0.10362434 29.23273277 C0.11407551 33.7570826 0.1282589 38.28135741 0.15087891 42.80566406 C0.17255993 47.16931524 0.18455858 51.53289413 0.18975449 55.896595 C0.19345879 57.56402347 0.20069207 59.23144785 0.21146011 60.89884567 C0.2259122 63.22871295 0.22798061 65.55827894 0.22705078 67.88818359 C0.23424133 68.58229843 0.24143188 69.27641327 0.24884033 69.99156189 C0.22810432 74.77189568 0.22810432 74.77189568 -2 77 C-2 52.25 -2 27.5 -2 2 C-7.61 2 -13.22 2 -19 2 C-18.97643433 4.58050171 -18.97643433 4.58050171 -18.95239258 7.21313477 C-18.90388736 12.91674848 -18.86948696 18.62033242 -18.84456348 24.32409763 C-18.82895163 27.78006646 -18.80779644 31.23581075 -18.77368164 34.69165039 C-18.73465061 38.67070772 -18.72025368 42.64967622 -18.70703125 46.62890625 C-18.69154739 47.86145645 -18.67606354 49.09400665 -18.66011047 50.36390686 C-18.65887547 56.68997718 -18.90017616 61.42603764 -22 67 C-23.07546819 63.52719773 -23.08693819 60.38545475 -23.02172852 56.76269531 C-23.00163223 55.50169006 -22.98153595 54.24068481 -22.96083069 52.94146729 C-22.9336365 51.57035093 -22.90632562 50.19923688 -22.87890625 48.828125 C-22.85459244 47.42137432 -22.83074952 46.01461543 -22.80735779 44.60784912 C-22.7446422 40.91211568 -22.6755404 37.21652831 -22.60510254 33.52093506 C-22.53430568 29.74709707 -22.46955674 25.97315583 -22.40429688 22.19921875 C-22.27544608 14.79936494 -22.13984765 7.39965502 -22 0 C-14.50280391 -1.14364008 -7.53181418 -0.75667376 0 0 Z " fill="#181819" transform="translate(723,480)"/>
<path d="M0 0 C24.09 0.33 48.18 0.66 73 1 C73 1.33 73 1.66 73 2 C49.57 2 26.14 2 2 2 C2 41.93 2 81.86 2 123 C6.29 123 10.58 123 15 123 C15 123.33 15 123.66 15 124 C10.05 124.33 5.1 124.66 0 125 C0 83.75 0 42.5 0 0 Z " fill="#080708" transform="translate(424,448)"/>
<path d="M0 0 C2.97 0 5.94 0 9 0 C8.67 0.66 8.34 1.32 8 2 C6.35 2 4.7 2 3 2 C3 31.37 3 60.74 3 91 C8.28 91 13.56 91 19 91 C18.67 91.66 18.34 92.32 18 93 C15.20880221 93.22114415 12.4178788 93.42743301 9.625 93.625 C8.8309375 93.68945312 8.036875 93.75390625 7.21875 93.8203125 C5.14971776 93.96058587 3.07374464 93.98758237 1 94 C-1 92 -1 92 -1.20254517 88.26681519 C-1.19053882 86.62031335 -1.16717466 84.97387288 -1.13525391 83.32763672 C-1.12579239 82.43001617 -1.11633087 81.53239563 -1.10658264 80.60757446 C-1.07282102 77.63140863 -1.02472883 74.65565224 -0.9765625 71.6796875 C-0.95040403 69.6198942 -0.92513634 67.56008942 -0.90072632 65.50027466 C-0.83399057 60.0716908 -0.75511615 54.64334775 -0.67376709 49.21496582 C-0.59292963 43.67856102 -0.52349814 38.1420147 -0.453125 32.60546875 C-0.31328659 21.73680949 -0.16063228 10.86837043 0 0 Z " fill="#151415" transform="translate(741,480)"/>
<path d="M0 0 C3.60748597 3.60748597 3.1926109 9.03466692 3.3125 13.9375 C3.19455409 25.4437791 -0.26094919 35.63901958 -6.0234375 45.51171875 C-7.28306302 47.9044662 -7.28306302 47.9044662 -6.27029419 49.93901062 C-4.92216991 52.12627547 -3.50625182 53.68875304 -1.65185547 55.46411133 C-0.97130096 56.12192093 -0.29074646 56.77973053 0.41043091 57.45747375 C1.14381683 58.15857773 1.87720276 58.8596817 2.6328125 59.58203125 C4.1765149 61.0858358 5.71946076 62.59041728 7.26171875 64.09570312 C9.69461698 66.46048808 12.13228742 68.81947407 14.58349609 71.1652832 C16.9492328 73.43421166 19.29224717 75.7246834 21.6328125 78.01953125 C22.37024689 78.71456253 23.10768127 79.40959381 23.86746216 80.12568665 C28.86320838 85.06968532 28.86320838 85.06968532 29.55810547 89.7956543 C28.85227341 93.84816776 27.73145373 95.91835989 25 99 C22.570093 100.68711552 20.96881516 101.21873285 18 102 C13.77605438 100.39087786 11.11800966 97.19405867 8 94 C7.030625 93.21625 6.06125 92.4325 5.0625 91.625 C2.07878519 89.20410478 -0.29202167 86.43459686 -2.703125 83.453125 C-3.95780703 81.86712389 -3.95780703 81.86712389 -6 81 C-6 80.34 -6 79.68 -6 79 C-6.66 79 -7.32 79 -8 79 C-9.48046875 77.4609375 -9.48046875 77.4609375 -11.1875 75.375 C-14.1100663 71.91212733 -17.15830902 69.02489092 -20.71484375 66.2265625 C-21.13894531 65.82179688 -21.56304688 65.41703125 -22 65 C-22 64.34 -22 63.68 -22 63 C-22.99 62.67 -23.98 62.34 -25 62 C-21.00374948 62.51605082 -19.09775033 63.41494761 -16.31469727 66.31054688 C-15.63371475 67.00796997 -14.95273224 67.70539307 -14.25111389 68.4239502 C-13.53016037 69.18123413 -12.80920685 69.93851807 -12.06640625 70.71875 C-10.51505586 72.30606963 -8.96362097 73.89330668 -7.41210938 75.48046875 C-4.98148657 77.99198937 -2.5551981 80.50758717 -0.1315918 83.02587891 C2.21293892 85.4548308 4.57247229 87.86843937 6.93359375 90.28125 C7.65252304 91.03853394 8.37145233 91.79581787 9.11216736 92.5760498 C12.13313507 95.65569586 14.19984971 97.72499792 18.32446289 99.14257812 C21.30760383 99.26296826 21.30760383 99.26296826 23.875 96.4375 C25.5374259 94.42481455 26.00659399 92.96876718 26.54956055 90.39697266 C25.67437138 84.98720717 21.98121352 82.36114251 18.08984375 78.71484375 C17.28841446 77.93613419 16.48698517 77.15742462 15.66127014 76.3551178 C13.10054985 73.86771369 10.52162198 71.40057007 7.9375 68.9375 C4.53374882 65.69287048 1.1499871 62.42926173 -2.22265625 59.15234375 C-3.01527359 58.40951645 -3.80789093 57.66668915 -4.62452698 56.90135193 C-5.34534958 56.20034866 -6.06617218 55.4993454 -6.80883789 54.77709961 C-7.45059464 54.16676376 -8.09235138 53.55642792 -8.7535553 52.92759705 C-10 51 -10 51 -9.78318787 48.44532776 C-8.8278046 45.46235865 -7.52134961 42.83395757 -6.0625 40.0625 C-0.8255349 30.090392 0.16116214 21.16578564 0.0625 10.0625 C0.05798828 9.09248047 0.05347656 8.12246094 0.04882812 7.12304688 C0.0371315 4.7486324 0.02074086 2.37434979 0 0 Z " fill="#2155BF" transform="translate(620,495)"/>
<path d="M0 0 C0.77943466 0.00222061 1.55886932 0.00444122 2.36192322 0.00672913 C3.68317955 0.00684242 3.68317955 0.00684242 5.03112793 0.00695801 C5.98841293 0.01211929 6.94569794 0.01728058 7.93199158 0.02259827 C9.39480812 0.02472069 9.39480812 0.02472069 10.88717651 0.02688599 C14.01542675 0.03250319 17.14360656 0.04505859 20.27183533 0.05775452 C22.38706867 0.0627673 24.50230313 0.06733059 26.61753845 0.07142639 C31.81482829 0.0824782 37.01207678 0.09923305 42.20933533 0.12025452 C42.70433533 1.11025452 42.70433533 1.11025452 43.20933533 2.12025452 C29.01933533 2.12025452 14.82933533 2.12025452 0.20933533 2.12025452 C0.32909735 9.18621364 0.45168808 16.2520025 0.58164978 23.31776428 C0.62500942 25.72235675 0.66668373 28.12698021 0.70664978 30.53163147 C0.76432721 33.98444468 0.82802918 37.43710171 0.89292908 40.88978577 C0.90964157 41.96799088 0.92635406 43.04619598 0.943573 44.15707397 C0.96351822 45.15788498 0.98346344 46.15869598 1.00401306 47.18983459 C1.01955734 48.07141739 1.03510162 48.95300018 1.05111694 49.86129761 C1.12681052 52.28796531 1.12681052 52.28796531 2.20933533 55.12025452 C-1.25566467 55.61525452 -1.25566467 55.61525452 -4.79066467 56.12025452 C-5.28566467 54.63525452 -5.28566467 54.63525452 -5.79066467 53.12025452 C-4.80066467 53.12025452 -3.81066467 53.12025452 -2.79066467 53.12025452 C-2.79288528 52.47101517 -2.7951059 51.82177582 -2.7973938 51.15286255 C-2.81944469 44.42137703 -2.83457045 37.6899017 -2.84559631 30.95838928 C-2.85063831 28.44308557 -2.8574717 25.9277848 -2.86610413 23.41249084 C-2.87817561 19.80595677 -2.88389416 16.19946129 -2.88832092 12.59291077 C-2.89348221 11.46063553 -2.89864349 10.32836029 -2.90396118 9.16177368 C-2.90403671 8.12077011 -2.90411224 7.07976654 -2.90419006 6.00721741 C-2.90641068 5.0856636 -2.90863129 4.1641098 -2.91091919 3.21463013 C-2.76001862 0.58651705 -2.63506983 0.17696169 0 0 Z " fill="#151517" transform="translate(445.79066467285156,517.8797454833984)"/>
<path d="M0 0 C3.52983103 6.18775161 2.37655024 13.10941699 1.0625 19.875 C-1.77601972 30.18121412 -8.75113097 38.0072985 -17.6484375 43.66796875 C-27.67688223 49.34853296 -38.89830619 50.62818544 -50.2265625 48.3515625 C-61.8430809 44.83959182 -70.51287013 38.37130167 -76.25 27.66796875 C-78.13222228 23.72706586 -79.57557459 20.4607031 -79 16 C-76.16346212 18.83653788 -75.78838868 21.97007112 -74.78125 25.78515625 C-74.22613754 28.17640092 -74.22613754 28.17640092 -72 29 C-71.2265625 30.299375 -71.2265625 30.299375 -70.4375 31.625 C-65.92842873 38.58137388 -58.77732635 42.70505124 -51 45 C-39.09598848 47.31875121 -27.76314936 46.78027119 -17.3125 40.3125 C-8.39729414 33.90174243 -3.14273624 25.81020084 -1 15 C-0.77711499 12.41343327 -0.58685615 9.84047222 -0.4375 7.25 C-0.37272461 6.20392578 -0.37272461 6.20392578 -0.30664062 5.13671875 C-0.20110404 3.42468078 -0.1001009 1.71236439 0 0 Z " fill="#1F58CC" transform="translate(603,501)"/>
<path d="M0 0 C4.29 0 8.58 0 13 0 C12.67 0.66 12.34 1.32 12 2 C8.7 2 5.4 2 2 2 C2 6.62 2 11.24 2 16 C4.6915625 15.9690625 4.6915625 15.9690625 7.4375 15.9375 C9.29166122 15.9161878 11.14712498 15.92773498 13 16 C14.61533532 17.61533532 14.14917769 19.38672579 14.17358398 21.62060547 C14.18707382 22.60608368 14.20056366 23.59156189 14.21446228 24.60690308 C14.22490067 25.68279694 14.23533905 26.7586908 14.24609375 27.8671875 C14.27906729 30.13802418 14.31227828 32.40885742 14.34570312 34.6796875 C14.39287759 38.26494667 14.43722617 41.85019559 14.47680664 45.43554688 C14.51687065 48.89208692 14.56836855 52.34832049 14.62109375 55.8046875 C14.6295079 56.86033905 14.63792206 57.9159906 14.64659119 59.00363159 C14.78992225 72.32834146 14.78992225 72.32834146 20.125 84.1875 C20.66382813 84.92355469 21.20265625 85.65960937 21.7578125 86.41796875 C22.16773438 86.94003906 22.57765625 87.46210937 23 88 C20.671875 87.83203125 20.671875 87.83203125 18 87 C16.453125 84.63671875 16.453125 84.63671875 15.25 81.6875 C14.84265625 80.72199219 14.4353125 79.75648438 14.015625 78.76171875 C12.4893855 74.61152134 11.86852189 71.1113135 11.79467773 66.68066406 C11.77473251 65.61986633 11.75478729 64.5590686 11.73423767 63.46612549 C11.71752518 62.32746033 11.70081268 61.18879517 11.68359375 60.015625 C11.66281265 58.84489441 11.64203156 57.67416382 11.62062073 56.46795654 C11.55524372 52.72869731 11.49629509 48.98936795 11.4375 45.25 C11.39430353 42.7148365 11.35068888 40.17968009 11.30664062 37.64453125 C11.19957441 31.4297616 11.0977859 25.21492222 11 19 C9.1128125 18.9690625 9.1128125 18.9690625 7.1875 18.9375 C6.47980469 18.92589844 5.77210938 18.91429687 5.04296875 18.90234375 C2.79694539 18.91736783 2.79694539 18.91736783 0 20 C-0.83854735 13.09811029 -1.01593448 6.88577812 0 0 Z " fill="#0E0E0F" transform="translate(350,481)"/>
<path d="M0 0 C0.66 0 1.32 0 2 0 C1.98428955 0.60360352 1.9685791 1.20720703 1.95239258 1.82910156 C1.56478504 18.98850372 1.46693539 33.86681972 13.98828125 47.1015625 C23.68589313 55.95181023 34.34188451 59.57790172 47.4375 59.375 C48.80684692 59.36629883 48.80684692 59.36629883 50.20385742 59.35742188 C56.79035554 59.23072461 62.82581346 58.42918815 69 56 C68 59 68 59 66.2421875 59.9140625 C51.67121489 64.29016318 36.75062929 64.28366525 23.0625 57.1875 C10.45587503 49.6382912 3.06040143 39.1861328 -1 25 C-2.68453176 16.43421103 -1.65898142 8.50056598 0 0 Z " fill="#121212" transform="translate(169,513)"/>
<path d="M0 0 C0.33 0 0.66 0 1 0 C2.15165285 8.23769164 2.14588945 16.4270542 2.1328125 24.7265625 C2.13348749 26.24392716 2.13445914 27.76129171 2.13571167 29.27865601 C2.13717856 32.44391926 2.1350661 35.60915413 2.13037109 38.77441406 C2.12466461 42.81694604 2.12796504 46.85941173 2.13394356 50.9019413 C2.13756814 54.02988173 2.13640204 57.15780661 2.13381577 60.28574753 C2.13315225 61.77598453 2.13395464 63.26622297 2.13629532 64.75645828 C2.13885424 66.84239665 2.13493642 68.92822958 2.12939453 71.01416016 C2.12859894 72.19724762 2.12780334 73.38033508 2.12698364 74.59927368 C1.99529128 78.12610333 1.55922207 81.51744706 1 85 C-0.32 85 -1.64 85 -3 85 C-3 84.34 -3 83.68 -3 83 C-7.95 83 -12.9 83 -18 83 C-18 82.67 -18 82.34 -18 82 C-12.39 82 -6.78 82 -1 82 C-1.00523682 79.58703613 -1.01047363 77.17407227 -1.01586914 74.68798828 C-1.03241452 66.72916667 -1.04347504 58.77034432 -1.05181217 50.81151009 C-1.0570381 45.98451963 -1.06413052 41.15754675 -1.07543945 36.33056641 C-1.0862786 31.67514752 -1.09227903 27.01974556 -1.09487724 22.36431503 C-1.09672963 20.58525196 -1.1003467 18.80618984 -1.10573006 17.02713394 C-1.11295409 14.54166893 -1.11399036 12.05627454 -1.11352539 9.57080078 C-1.11712067 8.82993225 -1.12071594 8.08906372 -1.12442017 7.32574463 C-1.11405216 2.22810432 -1.11405216 2.22810432 0 0 Z " fill="#141414" transform="translate(938,489)"/>
<path d="M0 0 C0.99 0.33 1.98 0.66 3 1 C3.04632672 13.82162793 3.08187097 26.64323597 3.10362434 39.46493053 C3.1140645 45.41846357 3.12822806 51.37193936 3.15087891 57.32543945 C3.17259883 63.07016373 3.18456688 68.81483294 3.18975449 74.55959511 C3.19345176 76.75205668 3.20067151 78.94451521 3.21146011 81.13695335 C3.22596357 84.20619615 3.2279784 87.27521091 3.22705078 90.34448242 C3.23783661 91.70610252 3.23783661 91.70610252 3.24884033 93.0952301 C3.23437779 97.51329769 3.08748602 100.98403051 1 105 C0.67 105 0.34 105 0 105 C0 70.35 0 35.7 0 0 Z " fill="#040304" transform="translate(104,448)"/>
<path d="M0 0 C6.93 0 13.86 0 21 0 C21 18.48 21 36.96 21 56 C20.67 56 20.34 56 20 56 C19.67 38.18 19.34 20.36 19 2 C13.39 2 7.78 2 2 2 C2 12.89 2 23.78 2 35 C1.67 35 1.34 35 1 35 C0.67 42.92 0.34 50.84 0 59 C-0.66 58.67 -1.32 58.34 -2 58 C-1.88239798 50.38269826 -1.75756641 42.76553971 -1.62768555 35.1484375 C-1.58434872 32.55666801 -1.54267275 29.96487021 -1.50268555 27.37304688 C-1.44495298 23.64965272 -1.3812667 19.92640096 -1.31640625 16.203125 C-1.29969376 15.04258606 -1.28298126 13.88204712 -1.26576233 12.68634033 C-1.24581711 11.60552185 -1.22587189 10.52470337 -1.20532227 9.41113281 C-1.18977798 8.46071106 -1.1742337 7.51028931 -1.15821838 6.53106689 C-1 4 -1 4 0 0 Z " fill="#252C3B" transform="translate(638,480)"/>
<path d="M0 0 C1.17175781 0.12761719 2.34351563 0.25523437 3.55078125 0.38671875 C4.73027344 0.50660156 5.90976562 0.62648438 7.125 0.75 C8.48044922 0.91048828 8.48044922 0.91048828 9.86328125 1.07421875 C9.90955789 10.81844255 9.94512661 20.56264034 9.96690559 30.30695152 C9.97735676 34.83130135 9.99154015 39.35557616 10.01416016 43.87988281 C10.03584118 48.24353399 10.04783983 52.60711288 10.05303574 56.97081375 C10.05674004 58.63824222 10.06397332 60.3056666 10.07474136 61.97306442 C10.08919345 64.3029317 10.09126186 66.63249769 10.09033203 68.96240234 C10.09752258 69.65651718 10.10471313 70.35063202 10.11212158 71.06578064 C10.09138557 75.84611443 10.09138557 75.84611443 7.86328125 78.07421875 C7.86328125 53.32421875 7.86328125 28.57421875 7.86328125 3.07421875 C3.24328125 3.07421875 -1.37671875 3.07421875 -6.13671875 3.07421875 C-3.13671875 0.07421875 -3.13671875 0.07421875 0 0 Z " fill="#09090A" transform="translate(713.13671875,478.92578125)"/>
<path d="M0 0 C8.25 0 16.5 0 25 0 C25.495 2.475 25.495 2.475 26 5 C26.32483418 6.33542939 26.6550855 7.66961551 27 9 C26.67 9 26.34 9 26 9 C26 12.63 26 16.26 26 20 C22.94080612 21.01973129 20.87581975 21.11533602 17.67578125 21.09765625 C16.64775391 21.09443359 15.61972656 21.09121094 14.56054688 21.08789062 C13.48869141 21.07951172 12.41683594 21.07113281 11.3125 21.0625 C10.22904297 21.05798828 9.14558594 21.05347656 8.02929688 21.04882812 C5.35280915 21.03703743 2.67643223 21.02058063 0 21 C0 20.67 0 20.34 0 20 C1.98 19.67 3.96 19.34 6 19 C-5.22 18.67 -16.44 18.34 -28 18 C-28 17.67 -28 17.34 -28 17 C-11.5 17 5 17 22 17 C22.66 11.72 23.32 6.44 24 1 C16.08 1 8.16 1 0 1 C0 0.67 0 0.34 0 0 Z " fill="#272B35" transform="translate(474,447)"/>
<path d="M0 0 C1.5921785 0.00666183 1.5921785 0.00666183 3.21652222 0.01345825 C4.41761627 0.01360931 5.61871033 0.01376038 6.85620117 0.01391602 C8.15830536 0.02423859 9.46040955 0.03456116 10.80197144 0.04519653 C12.14432566 0.04892627 13.48668261 0.05177343 14.82904053 0.05377197 C18.36367294 0.06141159 21.89814122 0.08106273 25.43270874 0.10317993 C29.03884663 0.12363138 32.64501103 0.13277218 36.25119019 0.14285278 C43.32808029 0.16430843 50.4048589 0.19844824 57.48165894 0.24050903 C57.48165894 1.23050903 57.48165894 2.22050903 57.48165894 3.24050903 C50.74135153 3.26609434 44.00105688 3.28347358 37.26071167 3.29544067 C34.97294649 3.30043544 32.68518445 3.30723355 30.39743042 3.31594849 C6.00169311 3.40648058 6.00169311 3.40648058 -4.51834106 2.24050903 C-2.51834106 0.24050903 -2.51834106 0.24050903 0 0 Z " fill="#161616" transform="translate(104.51834106445313,570.7594909667969)"/>
<path d="M0 0 C9.53690588 0.35321874 17.26044971 5.4102175 24 12 C34.23987951 24.42101977 37.78199678 37.14183275 37 53 C36.54132605 55.52071248 35.91402326 57.60068894 35 60 C34.34 60 33.68 60 33 60 C33.08378906 59.12859375 33.16757812 58.2571875 33.25390625 57.359375 C34.67249031 40.76732855 33.31716387 28.91076932 23.09375 15.42578125 C19.62154094 11.40294202 16.09885753 8.69961918 11 7 C11 6.34 11 5.68 11 5 C10.37351563 4.80664062 9.74703125 4.61328125 9.1015625 4.4140625 C8.28429687 4.15367187 7.46703125 3.89328125 6.625 3.625 C5.81289062 3.36976563 5.00078125 3.11453125 4.1640625 2.8515625 C2 2 2 2 0 0 Z " fill="#121213" transform="translate(229,481)"/>
<path d="M0 0 C5.88148242 0.80806454 9.05805907 3.72749798 13 8 C16.57409929 13.16724618 17.92391199 18.88328923 19 25 C16.703463 26.1482685 15.41686833 26.11561175 12.8671875 26.09765625 C12.06152344 26.09443359 11.25585938 26.09121094 10.42578125 26.08789062 C9.58402344 26.07951172 8.74226563 26.07113281 7.875 26.0625 C7.02550781 26.05798828 6.17601562 26.05347656 5.30078125 26.04882812 C3.20049091 26.03702874 1.1002367 26.01909306 -1 26 C-1.45503906 25.05769531 -1.91007812 24.11539062 -2.37890625 23.14453125 C-3.9732593 20.05187052 -5.32297283 18.19029496 -8 16 C-11.3393334 14.96443144 -14.80484605 14.49920988 -18.25 13.9375 C-19.32765625 13.76089844 -20.4053125 13.58429688 -21.515625 13.40234375 C-22.33546875 13.26957031 -23.1553125 13.13679688 -24 13 C-24 12.67 -24 12.34 -24 12 C-8.7885995 11.24048486 -8.7885995 11.24048486 -3 16 C-0.74290961 18.98518407 0 20.24918828 0 24 C1.2065625 23.7525 1.2065625 23.7525 2.4375 23.5 C6.65887352 22.90752652 10.74664545 22.91493291 15 23 C13.95219364 15.19564916 11.26410099 9.4437529 5.05078125 4.42578125 C3.39038992 3.25037238 1.69786825 2.12059305 0 1 C0 0.67 0 0.34 0 0 Z " fill="#121213" transform="translate(324,483)"/>
<path d="M0 0 C0.66 0.33 1.32 0.66 2 1 C1.65066406 1.51949219 1.30132813 2.03898437 0.94140625 2.57421875 C0.48636719 3.27160156 0.03132812 3.96898437 -0.4375 4.6875 C-0.88996094 5.37199219 -1.34242188 6.05648438 -1.80859375 6.76171875 C-3.95625499 10.79650527 -4.13003856 14.92659359 -4.20532227 19.43286133 C-4.22526749 20.49358353 -4.24521271 21.55430573 -4.26576233 22.64717102 C-4.28247482 23.7806749 -4.29918732 24.91417877 -4.31640625 26.08203125 C-4.33718735 27.25134689 -4.35796844 28.42066254 -4.37937927 29.62541199 C-4.44467414 33.35438253 -4.50366659 37.08342247 -4.5625 40.8125 C-4.60570429 43.34310609 -4.64931919 45.8737052 -4.69335938 48.40429688 C-4.800335 54.60279158 -4.90213848 60.80135506 -5 67 C-5.66 66.67 -6.32 66.34 -7 66 C-7.07637444 58.61684838 -7.12873584 51.23379954 -7.16479492 43.8503418 C-7.17983529 41.34118848 -7.20027272 38.83206126 -7.22631836 36.32299805 C-7.26291014 32.70615175 -7.27977448 29.08965458 -7.29296875 25.47265625 C-7.30845261 24.35979752 -7.32393646 23.24693878 -7.33988953 22.10035706 C-7.34150859 14.52336995 -6.89768403 7.39442987 -1.8125 1.4375 C-1.214375 0.963125 -0.61625 0.48875 0 0 Z " fill="#020203" transform="translate(768,502)"/>
<path d="M0 0 C1.58206057 0.00667536 3.16410534 0.0186375 4.74609375 0.03515625 C5.55240234 0.03966797 6.35871094 0.04417969 7.18945312 0.04882812 C9.18753131 0.06065107 11.18557158 0.07858711 13.18359375 0.09765625 C13.18359375 0.42765625 13.18359375 0.75765625 13.18359375 1.09765625 C7.59919585 2.27331897 3.19690318 2.09765625 -2.81640625 2.09765625 C-2.81640625 19.58765625 -2.81640625 37.07765625 -2.81640625 55.09765625 C-4.81640625 53.09765625 -4.81640625 53.09765625 -5.06364441 50.88975525 C-5.06221939 49.97343826 -5.06079437 49.05712128 -5.05932617 48.11303711 C-5.0624028 47.07533676 -5.06547943 46.03763641 -5.06864929 44.9684906 C-5.06146378 43.8445137 -5.05427826 42.7205368 -5.046875 41.5625 C-5.04641678 40.41350723 -5.04595856 39.26451447 -5.04548645 38.08070374 C-5.04246151 35.64876271 -5.03456804 33.21682366 -5.0222168 30.78491211 C-5.00396552 27.04729405 -5.00170702 23.30992358 -5.00195312 19.57226562 C-4.99703797 17.21484159 -4.99120966 14.85741925 -4.984375 12.5 C-4.98326218 11.37399887 -4.98214935 10.24799774 -4.98100281 9.08787537 C-4.97143303 7.53605309 -4.97143303 7.53605309 -4.96166992 5.95288086 C-4.95785812 5.03735947 -4.95404633 4.12183807 -4.95011902 3.17857361 C-4.71153852 -0.53435752 -3.91043209 0.10006223 0 0 Z " fill="#161617" transform="translate(386.81640625,496.90234375)"/>
<path d="M0 0 C0.99 0.495 0.99 0.495 2 1 C2.99307762 4.55420997 3.12197204 7.9421627 3.11352539 11.61645508 C3.11344986 12.71721878 3.11337433 13.81798248 3.11329651 14.95210266 C3.10813522 16.1293541 3.10297394 17.30660553 3.09765625 18.51953125 C3.0962413 19.73323898 3.09482635 20.94694672 3.09336853 22.19743347 C3.08777665 26.06914752 3.07522558 29.94080347 3.0625 33.8125 C3.05748395 36.43945229 3.05292123 39.06640549 3.04882812 41.69335938 C3.03780987 48.12892603 3.02107976 54.56445886 3 61 C0.3460447 58.3460447 0.72848617 57.06474997 0.68115234 53.35693359 C0.66128265 52.17586029 0.64141296 50.99478699 0.62094116 49.77792358 C0.60938995 48.49769318 0.59783875 47.21746277 0.5859375 45.8984375 C0.56657135 44.59170074 0.5472052 43.28496399 0.5272522 41.93862915 C0.4758583 38.46332891 0.43627178 34.98798988 0.39910889 31.51251221 C0.35911447 27.96657659 0.30800141 24.42080338 0.2578125 20.875 C0.16096753 13.91678524 0.07659034 6.95846635 0 0 Z " fill="#070707" transform="translate(805,510)"/>
<path d="M0 0 C1.51980469 0.52400391 1.51980469 0.52400391 3.0703125 1.05859375 C4.42179229 1.51847229 5.77335947 1.97809409 7.125 2.4375 C7.79015625 2.66759766 8.4553125 2.89769531 9.140625 3.13476562 C24.08141704 8.18826881 39.62170319 7.02476792 53.96875 0.8046875 C56 0 56 0 58 0 C58 0.66 58 1.32 58 2 C55.89828133 2.8394882 53.79353375 3.67139656 51.6875 4.5 C50.51574219 4.9640625 49.34398437 5.428125 48.13671875 5.90625 C45 7 45 7 42 7 C41.67 7.66 41.34 8.32 41 9 C26.10003621 9.42889022 12.55017266 9.06186247 -1 2 C-0.67 1.34 -0.34 0.68 0 0 Z " fill="#225CCF" transform="translate(535,559)"/>
<path d="M0 0 C0.66 0.33 1.32 0.66 2 1 C2.49250754 5.92507538 2.57745327 9.05507647 -0.0625 13.375 C-5.08514412 17.86332027 -9.93706083 19.60232819 -16.59375 19.3515625 C-22.42939287 18.49895234 -27.44311496 16.55688504 -31.625 12.375 C-33 10 -33 10 -33 8 C-31 8 -31 8 -29.625 9.3125 C-29.08875 9.869375 -28.5525 10.42625 -28 11 C-23.56071691 14.60691751 -20.23699789 15.15529513 -14.5625 15.1875 C-12.86287109 15.20876953 -12.86287109 15.20876953 -11.12890625 15.23046875 C-7.26809642 14.9460895 -5.31494949 14.00200957 -2.29296875 11.69921875 C-0.55087807 9.40976423 -0.49740649 7.66006001 -0.3125 4.8125 C-0.24675781 3.91144531 -0.18101562 3.01039063 -0.11328125 2.08203125 C-0.07589844 1.39496094 -0.03851563 0.70789063 0 0 Z " fill="#141314" transform="translate(323,541)"/>
<path d="M0 0 C2.25 0.25 2.25 0.25 4 1 C4 3.64 4 6.28 4 9 C9.61 9 15.22 9 21 9 C16.90223998 11.04888001 13.76402093 11.45454695 9.3125 11.6875 C8.62349609 11.73455078 7.93449219 11.78160156 7.22460938 11.83007812 C5.48527802 11.9344038 3.74224308 11.97267894 2 12 C1 11 1 11 0.9375 8.4375 C0.958125 7.633125 0.97875 6.82875 1 6 C-3.1075803 6.81033897 -6.15206094 8.7733522 -9.68359375 10.94140625 C-12.30912133 12.14126792 -14.14613714 12.19629745 -17 12 C-14.28156521 9.8685 -11.55934034 8.16027192 -8.5 6.5625 C-5.71040004 5.06040772 -3.92243673 3.92034042 -1.6875 1.625 C-1.130625 1.08875 -0.57375 0.5525 0 0 Z " fill="#1E1E20" transform="translate(700,562)"/>
<path d="M0 0 C0.99 0 1.98 0 3 0 C3 3.96 3 7.92 3 12 C7.95 12 12.9 12 18 12 C17.67 12.66 17.34 13.32 17 14 C11.72 14 6.44 14 1 14 C1 12.02 1 10.04 1 8 C0.34 8 -0.32 8 -1 8 C-0.67 7.34 -0.34 6.68 0 6 C-2.80996407 7.33629403 -5.31300292 8.86555622 -7.875 10.625 C-11.38037327 12.86344997 -13.77175761 13.5285303 -18 13 C-15.5159709 10.92997575 -13.04353521 9.5237642 -10.125 8.1875 C-7.09014422 6.73506437 -4.9957769 5.19642814 -2.6875 2.75 C-1.800625 1.8425 -0.91375 0.935 0 0 Z " fill="#1D1D1D" transform="translate(917,560)"/>
<path d="M0 0 C1.12366334 3.37099003 0.77638975 5.57137947 0 9 C-0.87095366 18.16643027 0.86973455 25.96921623 5.75 33.8125 C8.91646157 36.89100431 12.39717536 39.45528648 16 42 C13 43 13 43 11.16796875 42.13671875 C3.80794835 36.7509839 -0.56559834 29.78163156 -3 21 C-3.728832 13.37092742 -3.26865403 6.9458898 0 0 Z " fill="#101010" transform="translate(190,513)"/>
<path d="M0 0 C0.33 0.66 0.66 1.32 1 2 C0.5359375 3.175625 0.5359375 3.175625 0.0625 4.375 C-2.03433772 11.52891694 -2.05140461 18.56413407 1 25.4375 C5.43504345 33.21128402 12.75412786 35.65221696 21 38 C21 38.33 21 38.66 21 39 C12.68802781 38.73612787 7.38403836 36.24537048 1.39453125 30.4453125 C-3.15677215 25.29339721 -4.27939567 20.83085233 -4.25 14.0625 C-4.25515625 12.87785156 -4.2603125 11.69320313 -4.265625 10.47265625 C-3.99756435 6.96815744 -3.36761084 4.2312214 -2 1 C-1.34 0.67 -0.68 0.34 0 0 Z " fill="#0E0E0E" transform="translate(277,493)"/>
<path d="M0 0 C4.72818636 -0.02508834 9.45633231 -0.04303969 14.18457031 -0.05493164 C15.78646522 -0.0598995 17.38835574 -0.06667608 18.99023438 -0.07543945 C29.05049016 -0.12901851 38.97157671 0.10131224 49 1 C46.03045709 2.70279307 43.91915193 3.24666179 40.50683594 3.22705078 C39.62622498 3.22689972 38.74561401 3.22674866 37.83831787 3.22659302 C36.42561615 3.21110916 36.42561615 3.21110916 34.984375 3.1953125 C34.01340881 3.1924826 33.04244263 3.18965271 32.04205322 3.18673706 C28.94457615 3.17555292 25.8473895 3.15045142 22.75 3.125 C20.64844168 3.11496792 18.54687882 3.10584247 16.4453125 3.09765625 C11.29676331 3.07561934 6.14843087 3.04110145 1 3 C0.67 2.01 0.34 1.02 0 0 Z " fill="#060608" transform="translate(444,500)"/>
<path d="M0 0 C0.33 0 0.66 0 1 0 C1.97121964 7.29956348 2.15089648 14.45358428 2.125 21.8125 C2.12886719 22.93076172 2.13273438 24.04902344 2.13671875 25.20117188 C2.13542969 26.27560547 2.13414062 27.35003906 2.1328125 28.45703125 C2.13112061 29.9107312 2.13112061 29.9107312 2.12939453 31.39379883 C2.01155083 33.7673488 1.62358453 35.72086551 1 38 C0.77882441 40.4138176 0.59427758 42.83114597 0.4375 45.25 C0.35371094 46.51328125 0.26992188 47.7765625 0.18359375 49.078125 C0.12300781 50.04234375 0.06242188 51.0065625 0 52 C-0.33 52 -0.66 52 -1 52 C-1.02529271 44.91586059 -1.04284261 37.83173277 -1.05493164 30.74755859 C-1.05996974 28.33609583 -1.06680034 25.92463614 -1.07543945 23.51318359 C-1.08752787 20.05305221 -1.09323344 16.5929611 -1.09765625 13.1328125 C-1.10281754 12.04944611 -1.10797882 10.96607971 -1.11329651 9.84988403 C-1.11337204 8.8489975 -1.11344757 7.84811096 -1.11352539 6.81689453 C-1.115746 5.93309113 -1.11796661 5.04928772 -1.12025452 4.13870239 C-1 2 -1 2 0 0 Z " fill="#0A090A" transform="translate(938,489)"/>
<path d="M0 0 C0 0.66 0 1.32 0 2 C-1.17175781 2.02578125 -2.34351563 2.0515625 -3.55078125 2.078125 C-16.67662643 2.49626134 -26.745975 4.18565186 -37 13 C-36.29725954 9.27310679 -34.96761528 7.59436864 -31.9375 5.234375 C-21.71934891 -1.2755761 -11.66771606 -1.14045345 0 0 Z " fill="#121213" transform="translate(801,479)"/>
<path d="M0 0 C-3.04963909 2.47737903 -6.1090472 4.0252211 -9.6875 5.625 C-21.15613136 11.33141147 -26.62610508 19.82022504 -32 31 C-33.02308474 28.35600389 -33.08221853 27.22699462 -32.1015625 24.51953125 C-25.72471976 12.8286529 -14.51802957 -0.39237918 0 0 Z " fill="#111111" transform="translate(204,481)"/>
<path d="M0 0 C1.98 0 3.96 0 6 0 C4.02 0.99 4.02 0.99 2 2 C5.87892716 10.9479797 9.59136886 18.21707388 18.8515625 22.23828125 C20.74705589 22.92596025 22.65700041 23.57573638 24.58203125 24.17578125 C27 25 27 25 30 27 C23.2095838 27.73808872 18.85277022 25.23519962 13 22 C12.29488281 21.690625 11.58976562 21.38125 10.86328125 21.0625 C8.64335696 19.79663122 7.74083709 18.51628008 6.375 16.375 C5.21549048 14.49804324 5.21549048 14.49804324 4 13 C3.34 13 2.68 13 2 13 C1.26167392 8.67551867 0.60825035 4.34464536 0 0 Z " fill="#151515" transform="translate(270,547)"/>
<path d="M0 0 C0.87470009 7.24964985 1.15375368 14.38885705 1.125 21.6875 C1.12886719 22.68072266 1.13273438 23.67394531 1.13671875 24.69726562 C1.12979581 29.90677956 0.90446458 34.86752243 0 40 C-2 38 -2 38 -2.22705078 34.46826172 C-2.22673363 32.95536669 -2.21540633 31.44244912 -2.1953125 29.9296875 C-2.1924826 29.13345978 -2.18965271 28.33723206 -2.18673706 27.51687622 C-2.1755264 24.96943237 -2.15042062 22.42233789 -2.125 19.875 C-2.11497133 18.14974465 -2.10584528 16.42448381 -2.09765625 14.69921875 C-2.07558422 10.46601086 -2.04104867 6.2330647 -2 2 C-4.97 2 -7.94 2 -11 2 C-11 1.67 -11 1.34 -11 1 C-3.375 0 -3.375 0 0 0 Z " fill="#070607" transform="translate(939,448)"/>
<path d="M0 0 C4.46818191 0.51064936 6.82128234 1.82128234 10 5 C14.84475759 11.42338647 16.42236912 17.99664658 16 26 C15.28136415 28.94233925 14.32152443 31.25122919 13 34 C11.7486545 30.21730673 12.03963425 26.6984151 12.1875 22.75 C12.28889457 16.69477442 11.89082244 11.84470149 8 7 C5.54366927 4.68392126 5.54366927 4.68392126 3 3 C1.9826127 2.01769502 0.97403883 1.02530403 0 0 Z " fill="#111011" transform="translate(328,523)"/>
<path d="M0 0 C8.71436381 0.68797609 17.14683815 5.61733451 23 12 C31.38264818 23.1123327 31.38264818 23.1123327 31 30 C28.75332978 27.19166223 27.21534438 24.46388621 25.75 21.1875 C20.35634498 10.32040217 11.05190424 5.24919784 0 1 C0 0.67 0 0.34 0 0 Z " fill="#215CD3" transform="translate(572,470)"/>
<path d="M0 0 C1.65 0 3.3 0 5 0 C4.125 1.16666667 3.25 2.33333333 2.375 3.5 C1.82714844 4.23863281 1.27929688 4.97726562 0.71484375 5.73828125 C-0.34445884 7.13540243 -1.43088348 8.51295652 -2.55859375 9.85546875 C-7.28342833 15.61117633 -9.59091371 22.00725394 -12 29 C-12.33 29 -12.66 29 -13 29 C-13.99675852 21.69043752 -10.74474122 16.13292759 -7 10 C-5.20002598 7.7185958 -3.34759403 5.60337569 -1.3203125 3.5234375 C0.21831018 2.08409665 0.21831018 2.08409665 0 0 Z " fill="#100F10" transform="translate(856,488)"/>
<path d="M0 0 C0.33 0.66 0.66 1.32 1 2 C-0.7015625 2.12955078 -0.7015625 2.12955078 -2.4375 2.26171875 C-15.28954416 3.32111795 -15.28954416 3.32111795 -25.5078125 10.66015625 C-26.69151478 12.090745 -27.84834172 13.543491 -29 15 C-29.66 15 -30.32 15 -31 15 C-29.5921241 9.6813577 -26.28478756 7.10923948 -22 4 C-21.42378906 3.58105469 -20.84757813 3.16210938 -20.25390625 2.73046875 C-13.96083214 -1.09950969 -7.13593719 -0.36080581 0 0 Z " fill="#100F10" transform="translate(223,496)"/>
<path d="M0 0 C1.81274414 0.01353516 1.81274414 0.01353516 3.66210938 0.02734375 C6.62911278 0.05079832 9.59570143 0.08362206 12.5625 0.125 C12.2325 0.785 11.9025 1.445 11.5625 2.125 C9.1754958 2.45064021 6.89973725 2.64292878 4.5 2.75 C3.79423828 2.78794678 3.08847656 2.82589355 2.36132812 2.86499023 C-5.23660134 3.23531372 -12.83312248 3.21600984 -20.4375 3.125 C-20.4375 2.795 -20.4375 2.465 -20.4375 2.125 C-13.69161569 -0.39108607 -7.1282732 -0.10111026 0 0 Z " fill="#16171A" transform="translate(468.4375,464.875)"/>
<path d="M0 0 C2.06951124 2.51297793 3.96642976 4.94318882 5.625 7.75 C10.73117951 15.47935408 18.32820971 21.00467147 27 24 C27 24.33 27 24.66 27 25 C19.19636012 24.83035565 13.44321445 20.52805752 8.09765625 15.05078125 C6.68212155 13.39990093 5.33814891 11.7133731 4 10 C3.34 9.34 2.68 8.68 2 8 C0.3125 6.125 0.3125 6.125 -1 4 C-0.6875 1.75 -0.6875 1.75 0 0 Z " fill="#121212" transform="translate(846,547)"/>
<path d="M0 0 C0.33 0 0.66 0 1 0 C1.76468472 6.64782358 -2.76986203 11.45698554 -6.66064453 16.42138672 C-9.86883966 20.20268269 -13.60318394 23.6762941 -18 26 C-20.29296875 25.6953125 -20.29296875 25.6953125 -22 25 C-21.43410156 24.59007812 -20.86820313 24.18015625 -20.28515625 23.7578125 C-19.55167969 23.21898437 -18.81820312 22.68015625 -18.0625 22.125 C-16.96615234 21.32449219 -16.96615234 21.32449219 -15.84765625 20.5078125 C-13.88901765 19.11987896 -13.88901765 19.11987896 -13 17 C-12.09121094 16.60941406 -12.09121094 16.60941406 -11.1640625 16.2109375 C-8.21003623 14.55796251 -7.12434571 12.49947556 -5.375 9.625 C-4.78460938 8.66851563 -4.19421875 7.71203125 -3.5859375 6.7265625 C-2.29902748 4.51409159 -1.1044103 2.30723339 0 0 Z " fill="#111011" transform="translate(261,543)"/>
<path d="M0 0 C0.66 0.33 1.32 0.66 2 1 C1.65066406 1.51949219 1.30132813 2.03898437 0.94140625 2.57421875 C0.48636719 3.27160156 0.03132812 3.96898437 -0.4375 4.6875 C-0.88996094 5.37199219 -1.34242188 6.05648438 -1.80859375 6.76171875 C-4.74380289 12.27606249 -4.3178757 18.71724279 -4.62109375 24.8203125 C-5 28 -5 28 -7 31 C-7.66148069 8.28916309 -7.66148069 8.28916309 -1.8125 1.4375 C-1.214375 0.963125 -0.61625 0.48875 0 0 Z " fill="#040405" transform="translate(768,502)"/>
<path d="M0 0 C0.33 0 0.66 0 1 0 C1.08636719 0.68707031 1.17273438 1.37414062 1.26171875 2.08203125 C1.40222656 2.98308594 1.54273438 3.88414062 1.6875 4.8125 C1.87892578 6.15248047 1.87892578 6.15248047 2.07421875 7.51953125 C2.81597543 10.16253544 2.81597543 10.16253544 5.19140625 11.7265625 C8.20106727 13.09116541 11.02206624 13.86682462 14.25 14.5625 C16.18117748 14.97935172 18.10402411 15.44458375 20 16 C20.33 16.66 20.66 17.32 21 18 C14.10938549 18.78302438 7.9192911 16.50484342 2 13 C-0.81925751 9.21311597 -1.41850958 6.70823277 -1 2 C-0.67 1.34 -0.34 0.68 0 0 Z " fill="#100F10" transform="translate(292,501)"/>
<path d="M0 0 C4.67064023 0.2830691 7.06584558 2.42344818 10.35546875 5.4765625 C12.05165081 7.11358551 12.05165081 7.11358551 14.375 8.6875 C17.13535733 12.61570082 16.83820672 17.30799497 17 22 C14.73361732 19.17353424 13.21241141 16.43087369 11.75 13.125 C9.32060963 8.11853596 6.39974165 5.28041191 2 2 C1.34 1.34 0.68 0.68 0 0 Z " fill="#131313" transform="translate(808,484)"/>
<path d="M0 0 C2.73908441 1.36954221 2.93190004 2.8966473 4.125 5.6875 C7.25572015 12.16197748 11.55333783 15.42027984 18 18.375 C18.99 18.684375 18.99 18.684375 20 19 C19.67 19.66 19.34 20.32 19 21 C12.22074026 19.30518507 6.24156197 15.53366163 2.5625 9.5 C1.10302439 6.23077464 0.3460824 3.54734458 0 0 Z " fill="#111111" transform="translate(862,536)"/>
<path d="M0 0 C9.29251914 3.78584113 14.42766159 14.33249494 18.43359375 22.95703125 C19.10174068 25.36696809 18.67639004 26.63463968 18 29 C17.49210938 27.9378125 16.98421875 26.875625 16.4609375 25.78125 C12.86241615 18.35688607 9.38197257 11.32142932 4 5 C2.824375 3.515 2.824375 3.515 1.625 2 C0.820625 1.01 0.820625 1.01 0 0 Z " fill="#1D53C4" transform="translate(601,465)"/>
<path d="M0 0 C3.14488881 2.57309085 4.05524046 5.08599618 5 9 C5.22116034 12.13146134 5.19004434 15.23786133 5.125 18.375 C5.11597656 19.20644531 5.10695313 20.03789063 5.09765625 20.89453125 C5.0742622 22.92981337 5.03839725 24.96494564 5 27 C4.34 27.33 3.68 27.66 3 28 C3 22.06 3 16.12 3 10 C2.34 9.67 1.68 9.34 1 9 C0.5859375 6.93359375 0.5859375 6.93359375 0.375 4.4375 C0.30023437 3.61121094 0.22546875 2.78492188 0.1484375 1.93359375 C0.09945312 1.29550781 0.05046875 0.65742188 0 0 Z " fill="#141414" transform="translate(915,510)"/>
<path d="M0 0 C2.00720923 0.28674418 4.0085944 0.61866701 6 1 C6 1.66 6 2.32 6 3 C4.02 3 2.04 3 0 3 C0 16.53 0 30.06 0 44 C-0.33 44 -0.66 44 -1 44 C-1.02464513 37.8944529 -1.04283371 31.78893449 -1.05493164 25.68334961 C-1.05997288 23.60456844 -1.06680574 21.52579084 -1.07543945 19.44702148 C-1.08751422 16.46597414 -1.09323024 13.48497351 -1.09765625 10.50390625 C-1.10539818 9.10078941 -1.10539818 9.10078941 -1.11329651 7.66932678 C-1.11337204 6.80850998 -1.11344757 5.94769318 -1.11352539 5.06079102 C-1.115746 4.29912125 -1.11796661 3.53745148 -1.12025452 2.75270081 C-1 1 -1 1 0 0 Z " fill="#040505" transform="translate(920,447)"/>
<path d="M0 0 C-4.21114643 1.31196937 -6.78407221 0.21475886 -11 -1 C-16.39710917 -1.2998394 -21.65361709 -0.67890577 -27 0 C-19.92552289 -7.51789163 -8.05908468 -4.36047094 0 0 Z " fill="#111111" transform="translate(799,500)"/>
<path d="M0 0 C7.92 0.33 15.84 0.66 24 1 C24 1.66 24 2.32 24 3 C15.93186584 3.84927728 8.79694845 4.5108817 1 2 C0.67 1.34 0.34 0.68 0 0 Z " fill="#131313" transform="translate(874,572)"/>
<path d="M0 0 C0.66 0 1.32 0 2 0 C2 2.31 2 4.62 2 7 C7.61 7 13.22 7 19 7 C14.87272638 9.06363681 11.73160349 9.42167583 7.25 9.625 C6.55261719 9.66367187 5.85523438 9.70234375 5.13671875 9.7421875 C3.42489182 9.83598624 1.71248318 9.91906174 0 10 C0 6.7 0 3.4 0 0 Z " fill="#0A0A0B" transform="translate(702,564)"/>
<path d="M0 0 C0.33 0 0.66 0 1 0 C2.33257403 14.78132118 2.33257403 14.78132118 1 21 C0.01 20.34 -0.98 19.68 -2 19 C-4.05709596 18.75944532 -4.05709596 18.75944532 -6.1875 18.875 C-7.445625 18.91625 -8.70375 18.9575 -10 19 C-10 18.67 -10 18.34 -10 18 C-7.03 17.67 -4.06 17.34 -1 17 C-1.01740234 15.41058594 -1.01740234 15.41058594 -1.03515625 13.7890625 C-1.04453476 12.40104342 -1.05363489 11.01302245 -1.0625 9.625 C-1.07087891 8.92632813 -1.07925781 8.22765625 -1.08789062 7.5078125 C-1.11328125 2.2265625 -1.11328125 2.2265625 0 0 Z " fill="#0B0B0D" transform="translate(722,555)"/>
<path d="M0 0 C2.91954138 1.04269335 3.92392988 1.87524501 5.5625 4.5625 C8.25238857 8.96610789 12.435948 11.80246118 16.44140625 14.94921875 C18.44149346 16.55234209 20.24618608 18.13989432 22 20 C16.90987475 18.68568408 13.63072972 16.36171262 9.875 12.8125 C9.36324219 12.35552734 8.85148438 11.89855469 8.32421875 11.42773438 C4.61921572 7.99417759 2.33093934 4.47785716 0 0 Z " fill="#2056C5" transform="translate(513,540)"/>
<path d="M0 0 C1.15155303 3.45465909 0.81908549 4.07757125 -0.375 7.375 C-2.36195167 13.50823895 -2.70872842 19.59202516 -3 26 C-5.60599988 23.39400012 -5.3277682 22.1946257 -5.375 18.5625 C-5.2973358 12.71650406 -4.38812113 4.38812113 0 0 Z " fill="#0D0D0D" transform="translate(865,509)"/>
<path d="M0 0 C0.66 0 1.32 0 2 0 C1.19296069 5.88423598 -1.77503693 9.01600441 -6 13 C-8.57098574 14.8632928 -11.20757946 16.49136761 -14 18 C-14.99 17.34 -15.98 16.68 -17 16 C-9 12 -9 12 -6.80078125 10.9765625 C-4.41062194 9.68038066 -4.03881422 8.49315412 -3 6 C-2 4 -1 2 0 0 Z " fill="#121112" transform="translate(916,539)"/>
<path d="M0 0 C0.99 0 1.98 0 3 0 C2 2 2 2 0.0625 2.875 C-2.14016196 3.81327954 -2.14016196 3.81327954 -2.89453125 5.8984375 C-4.82673596 9.57167473 -8.31298339 11.29987567 -12 13 C-15.5 13.3125 -15.5 13.3125 -18 13 C-15.5159709 10.92997575 -13.04353521 9.5237642 -10.125 8.1875 C-7.09014422 6.73506437 -4.9957769 5.19642814 -2.6875 2.75 C-1.800625 1.8425 -0.91375 0.935 0 0 Z " fill="#131212" transform="translate(917,560)"/>
<path d="M0 0 C0.66 0.99 1.32 1.98 2 3 C0.58829091 4.29708314 -0.82958196 5.58745978 -2.25 6.875 C-3.03890625 7.59429688 -3.8278125 8.31359375 -4.640625 9.0546875 C-9.18735847 12.8034843 -12.08972838 13.22731814 -18 13 C-15.38735057 11.25823372 -12.96619069 10.0453757 -10.125 8.75 C-5.47368773 6.47194502 -2.94569636 4.22216479 0 0 Z " fill="#131214" transform="translate(699,545)"/>
<path d="M0 0 C0.33 0.66 0.66 1.32 1 2 C-7.38111888 13.97727273 -7.38111888 13.97727273 -13.875 15.8125 C-14.57625 15.874375 -15.2775 15.93625 -16 16 C-16 15.34 -16 14.68 -16 14 C-9.375 10.125 -9.375 10.125 -6 9 C-5.29605388 7.68596724 -4.63654342 6.3479743 -4 5 C-2.6949419 3.31110128 -1.36639342 1.6396721 0 0 Z " fill="#101010" transform="translate(243,540)"/>
<path d="M0 0 C0.66 0 1.32 0 2 0 C0.02504535 6.00890457 -3.95090953 9.38021655 -9 13 C-12.5625 14 -12.5625 14 -15 14 C-12.34383364 11.81256888 -9.73138886 9.83145968 -6.8125 8 C-4.1056809 6.07515086 -3.09393328 5.06301317 -2 2 C-1.34 2 -0.68 2 0 2 C0 1.34 0 0.68 0 0 Z " fill="#0E0E0E" transform="translate(338,558)"/>
<path d="M0 0 C3.96 0 7.92 0 12 0 C12 3.63 12 7.26 12 11 C11.34 11 10.68 11 10 11 C10 8.03 10 5.06 10 2 C6.37 2 2.74 2 -1 2 C-0.67 1.34 -0.34 0.68 0 0 Z " fill="#050505" transform="translate(751,480)"/>
<path d="M0 0 C4.01013741 0.14109743 7.45437274 1.04729091 11.25 2.3125 C11.25 2.6425 11.25 2.9725 11.25 3.3125 C5.31 3.3125 -0.63 3.3125 -6.75 3.3125 C-3.75 0.3125 -3.75 0.3125 0 0 Z " fill="#141414" transform="translate(887.75,477.6875)"/>
<path d="M0 0 C0.33 0 0.66 0 1 0 C1.07476562 0.68964844 1.14953125 1.37929688 1.2265625 2.08984375 C2.24660333 9.38013556 4.46606597 14.22565006 9 20 C6.6796875 19.81640625 6.6796875 19.81640625 4 19 C0.65739218 14.40593273 -1.53953413 9.02637385 -0.8125 3.3125 C-0.544375 2.219375 -0.27625 1.12625 0 0 Z " fill="#101010" transform="translate(364,549)"/>
<path d="M0 0 C6.40522707 0.27256285 11.25103388 2.64847954 16 7 C16.7578125 9.19921875 16.7578125 9.19921875 17 11 C16.27554688 10.52949219 15.55109375 10.05898438 14.8046875 9.57421875 C7.59989702 4.93179183 7.59989702 4.93179183 0 1 C0 0.67 0 0.34 0 0 Z " fill="#131213" transform="translate(900,481)"/>
<path d="M0 0 C-1 2 -1 2 -3.109375 2.74609375 C-3.98078125 2.97425781 -4.8521875 3.20242188 -5.75 3.4375 C-9.6092485 4.51257637 -12.59309512 5.87068445 -16 8 C-16.66 7.67 -17.32 7.34 -18 7 C-13.02150182 1.22494211 -7.49174765 -0.45867843 0 0 Z " fill="#111112" transform="translate(880,480)"/>
<path d="M0 0 C0 0.66 0 1.32 0 2 C-3.54089394 3.08749814 -6.8707086 3.16650005 -10.5625 3.1875 C-11.69816406 3.20167969 -12.83382813 3.21585938 -14.00390625 3.23046875 C-17 3 -17 3 -20 1 C-17.60429729 0.8312461 -15.20846637 0.66493164 -12.8125 0.5 C-12.13896484 0.45230469 -11.46542969 0.40460937 -10.77148438 0.35546875 C-7.17363248 0.10976179 -3.60627694 -0.05601984 0 0 Z " fill="#0B0C0C" transform="translate(322,572)"/>
<path d="M0 0 C2.41734542 -0.08117951 4.83194949 -0.14056926 7.25 -0.1875 C7.93191406 -0.21263672 8.61382813 -0.23777344 9.31640625 -0.26367188 C14.02342814 -0.33222074 15.0208846 0.01566345 19 3 C12.73 2.67 6.46 2.34 0 2 C0 1.34 0 0.68 0 0 Z " fill="#111010" transform="translate(882,496)"/>
<path d="M0 0 C1.54300781 -0.00773437 1.54300781 -0.00773437 3.1171875 -0.015625 C6.161282 0.25320412 8.3684535 0.96835846 11.125 2.25 C11.125 2.91 11.125 3.57 11.125 4.25 C10.46113281 4.09660156 9.79726563 3.94320313 9.11328125 3.78515625 C5.52344078 3.14226979 1.94704581 2.89966009 -1.6875 2.6875 C-2.72680664 2.62272461 -2.72680664 2.62272461 -3.78710938 2.55664062 C-5.48288686 2.45138547 -7.17892052 2.35027137 -8.875 2.25 C-5.43560073 -0.04293284 -4.04937319 -0.02019638 0 0 Z " fill="#0C0C0D" transform="translate(310.875,478.75)"/>
<path d="M0 0 C-2.67894284 1.78596189 -4.0031669 2.39169178 -7.01171875 3.0703125 C-7.76904297 3.24433594 -8.52636719 3.41835938 -9.30664062 3.59765625 C-10.48516602 3.85869141 -10.48516602 3.85869141 -11.6875 4.125 C-12.48478516 4.30675781 -13.28207031 4.48851562 -14.10351562 4.67578125 C-16.06775651 5.12273427 -18.03372014 5.56210416 -20 6 C-17.54965623 2.32448434 -16.44065733 2.29761721 -12.25 1.3125 C-10.71085937 0.93544922 -10.71085937 0.93544922 -9.140625 0.55078125 C-6.02322197 0.00407251 -3.15756522 -0.09926477 0 0 Z " fill="#171718" transform="translate(308,478)"/>
<path d="M0 0 C4.95 0 9.9 0 15 0 C15.33 0.99 15.66 1.98 16 3 C10.39 2.67 4.78 2.34 -1 2 C-0.67 1.34 -0.34 0.68 0 0 Z " fill="#1B1A1B" transform="translate(88,447)"/>
<path d="M0 0 C0.69480469 0.28617188 1.38960938 0.57234375 2.10546875 0.8671875 C5.1464265 2.05730592 8.21132475 3.10263453 11.3125 4.125 C12.38113281 4.47820313 13.44976562 4.83140625 14.55078125 5.1953125 C15.35902344 5.46085938 16.16726563 5.72640625 17 6 C17 6.33 17 6.66 17 7 C10.24520726 7.7342166 5.81475715 5.27591952 0 2 C0 1.34 0 0.68 0 0 Z " fill="#0F0E0F" transform="translate(283,567)"/>
<path d="M0 0 C0 0.66 0 1.32 0 2 C-1.269553 2.64834654 -2.54069706 3.29357815 -3.8125 3.9375 C-4.52019531 4.29714844 -5.22789062 4.65679687 -5.95703125 5.02734375 C-8 6 -8 6 -11 7 C-11 7.66 -11 8.32 -11 9 C-11.99 8.67 -12.98 8.34 -14 8 C-12.71064081 6.85157077 -11.41843421 5.70633773 -10.125 4.5625 C-9.04605469 3.60537109 -9.04605469 3.60537109 -7.9453125 2.62890625 C-4.9077622 0.08541534 -4.1789564 0 0 0 Z " fill="#121112" transform="translate(881,498)"/>
<path d="M0 0 C5.73401535 5.43222506 5.73401535 5.43222506 7 9 C7 10.32 7 11.64 7 13 C6.34 13 5.68 13 5 13 C4.15930585 11.39967863 3.32768495 9.79458829 2.5 8.1875 C1.80390625 6.84751953 1.80390625 6.84751953 1.09375 5.48046875 C0 3 0 3 0 0 Z " fill="#131313" transform="translate(238,506)"/>
<path d="M0 0 C1.0828125 1.11375 1.0828125 1.11375 2.1875 2.25 C5.57786904 5.5650275 9.05783597 8.37189065 13 11 C12.01 11.33 11.02 11.66 10 12 C5.61203995 9.76691934 2.50038921 7.12587572 0.5 2.625 C0.335 1.75875 0.17 0.8925 0 0 Z " fill="#101011" transform="translate(659,545)"/>
<path d="M0 0 C4.29 0.33 8.58 0.66 13 1 C13 1.66 13 2.32 13 3 C8.71 3 4.42 3 0 3 C0 2.01 0 1.02 0 0 Z " fill="#181819" transform="translate(788,478)"/>
<path d="M0 0 C5.62917348 0.40208382 8.00386479 2.28930302 12 6 C11.01 6.33 10.02 6.66 9 7 C6.96166576 5.7260411 4.96147874 4.38938077 3 3 C2.01 2.67 1.02 2.34 0 2 C0 1.34 0 0.68 0 0 Z " fill="#101010" transform="translate(225,498)"/>
<path d="M0 0 C4.92127034 -0.16682272 8.50343896 -0.24828052 13 2 C13 2.33 13 2.66 13 3 C11.58344207 3.0272415 10.16672955 3.04650467 8.75 3.0625 C7.56664062 3.07990234 7.56664062 3.07990234 6.359375 3.09765625 C4.09308998 3.00385306 2.1711105 2.63241063 0 2 C0 1.34 0 0.68 0 0 Z " fill="#111111" transform="translate(299,532)"/>
<path d="M0 0 C0.66 0.33 1.32 0.66 2 1 C1.65066406 1.51949219 1.30132813 2.03898437 0.94140625 2.57421875 C-2.54055504 7.87724314 -2.54055504 7.87724314 -4 14 C-6 11 -6 11 -5.375 7.5625 C-4.01655007 4.04287973 -2.85738175 2.38115146 0 0 Z " fill="#121212" transform="translate(768,502)"/>
<path d="M0 0 C0.66 0.33 1.32 0.66 2 1 C2.05380578 3.79192205 2.09357669 6.5828141 2.125 9.375 C2.15013672 10.56609375 2.15013672 10.56609375 2.17578125 11.78125 C2.19335473 13.85492015 2.10335168 15.92883241 2 18 C1.34 18.66 0.68 19.32 0 20 C0 14.06 0 8.12 0 2 C-0.66 1.67 -1.32 1.34 -2 1 C-1.34 0.67 -0.68 0.34 0 0 Z " fill="#292A2C" transform="translate(406,553)"/>
<path d="M0 0 C4.875 4.625 4.875 4.625 6 8 C5.01 9.485 5.01 9.485 4 11 C2.20327502 8.30491252 1.64178421 7.02555412 1 4 C0.814375 3.2575 0.62875 2.515 0.4375 1.75 C0.293125 1.1725 0.14875 0.595 0 0 Z " fill="#1A191A" transform="translate(800,502)"/>
<path d="M0 0 C0.33 1.32 0.66 2.64 1 4 C0.01 3.67 -0.98 3.34 -2 3 C-4.39254576 2.77439324 -6.78928123 2.59151405 -9.1875 2.4375 C-10.45980469 2.35371094 -11.73210938 2.26992188 -13.04296875 2.18359375 C-14.01878906 2.12300781 -14.99460937 2.06242188 -16 2 C-16 1.67 -16 1.34 -16 1 C-8.08 0.505 -8.08 0.505 0 0 Z " fill="#0E0D0E" transform="translate(826,570)"/>
<path d="M0 0 C3.5786304 1.65167557 6.74820188 3.78286492 10 6 C8.375 6.8125 8.375 6.8125 6 7 C2.75 4.6875 2.75 4.6875 0 2 C0 1.34 0 0.68 0 0 Z " fill="#121319" transform="translate(648,564)"/>
<path d="M0 0 C0.99 0.99 1.98 1.98 3 3 C2.67 3.99 2.34 4.98 2 6 C-1.63 6 -5.26 6 -9 6 C-9 5.67 -9 5.34 -9 5 C-4.545 4.505 -4.545 4.505 0 4 C0 2.68 0 1.36 0 0 Z " fill="#262628" transform="translate(761,568)"/>
<path d="M0 0 C3.3 0 6.6 0 10 0 C10 0.99 10 1.98 10 3 C8.5199159 2.88637738 7.04089926 2.75877092 5.5625 2.625 C4.73878906 2.55539062 3.91507812 2.48578125 3.06640625 2.4140625 C2.38449219 2.27742188 1.70257813 2.14078125 1 2 C0.67 1.34 0.34 0.68 0 0 Z " fill="#070708" transform="translate(353,497)"/>
<path d="M0 0 C2.34601486 2.13274079 3.86264449 4.02537789 5 7 C5.125 9.75 5.125 9.75 5 12 C1.94063363 8.24532309 0 4.91886939 0 0 Z " fill="#1C54CA" transform="translate(598,488)"/>
<path d="M0 0 C1.65 0 3.3 0 5 0 C2.03 3.96 2.03 3.96 -1 8 C-1.66 7.67 -2.32 7.34 -3 7 C-2.690625 6.401875 -2.38125 5.80375 -2.0625 5.1875 C-0.89790296 2.91043228 -0.89790296 2.91043228 0 0 Z " fill="#161617" transform="translate(856,488)"/>
<path d="M0 0 C0.33 0 0.66 0 1 0 C1.50559908 1.43554025 2.0042749 2.8735202 2.5 4.3125 C2.7784375 5.11300781 3.056875 5.91351562 3.34375 6.73828125 C4 9 4 9 4 12 C3.34 12 2.68 12 2 12 C-0.60018816 8.09971775 -0.15085514 4.52565431 0 0 Z " fill="#0F1218" transform="translate(640,546)"/>
<path d="M0 0 C0.33 0.66 0.66 1.32 1 2 C0.00390625 4.1640625 0.00390625 4.1640625 -1.4375 6.625 C-1.91058594 7.44226563 -2.38367188 8.25953125 -2.87109375 9.1015625 C-3.24363281 9.72804688 -3.61617187 10.35453125 -4 11 C-5.04528847 7.76591956 -5.06464549 7.15699619 -3.6875 3.8125 C-2 1 -2 1 0 0 Z " fill="#0D0C0C" transform="translate(176,501)"/>
<path d="M0 0 C0 1.65 0 3.3 0 5 C-0.99 4.34 -1.98 3.68 -3 3 C-5.05709596 2.75944532 -5.05709596 2.75944532 -7.1875 2.875 C-8.445625 2.91625 -9.70375 2.9575 -11 3 C-11 2.67 -11 2.34 -11 2 C-9.5422647 1.664061 -8.08378894 1.33133376 -6.625 1 C-5.40683594 0.7215625 -5.40683594 0.7215625 -4.1640625 0.4375 C-2 0 -2 0 0 0 Z " fill="#2A2A2D" transform="translate(723,571)"/>
<path d="M0 0 C0.66 0.33 1.32 0.66 2 1 C1.49287967 4.71888239 0.88391785 7.73454239 -1 11 C-2.60080151 6.99799622 -1.29279692 3.95443764 0 0 Z " fill="#2361DA" transform="translate(602,516)"/>
<path d="M0 0 C3.84685385 1.24762828 6.02929405 2.3870391 8 6 C7.67 6.99 7.34 7.98 7 9 C5.83037314 7.69013727 4.66437056 6.3770374 3.5 5.0625 C2.8503125 4.33160156 2.200625 3.60070312 1.53125 2.84765625 C0 1 0 1 0 0 Z " fill="#0A0A0A" transform="translate(248,491)"/>
<path d="M0 0 C0.33 0 0.66 0 1 0 C1 4.29 1 8.58 1 13 C0.67 13 0.34 13 0 13 C-2.21538462 5.73846154 -2.21538462 5.73846154 -1.125 2 C-0.75375 1.34 -0.3825 0.68 0 0 Z " fill="#161616" transform="translate(351,483)"/>
<path d="M0 0 C3.3 0 6.6 0 10 0 C10 0.66 10 1.32 10 2 C6.7 2.33 3.4 2.66 0 3 C0 2.01 0 1.02 0 0 Z " fill="#1B1B1B" transform="translate(926,447)"/>
<path d="M0 0 C0.99 0.33 1.98 0.66 3 1 C0.64031256 3.09749995 -0.54616994 3.96905704 -3.75 4.1875 C-4.86375 4.0946875 -4.86375 4.0946875 -6 4 C-4.03617993 2.49440461 -2.21736634 1.10868317 0 0 Z " fill="#131314" transform="translate(689,570)"/>
<path d="M0 0 C0.33 0 0.66 0 1 0 C1 2.97 1 5.94 1 9 C0.67 9 0.34 9 0 9 C0 6.03 0 3.06 0 0 Z " fill="#2F2E2F" transform="translate(360,515)"/>
<path d="M0 0 C0.33 0 0.66 0 1 0 C1 2.64 1 5.28 1 8 C0.67 8 0.34 8 0 8 C0 5.36 0 2.72 0 0 Z " fill="#383A3F" transform="translate(660,510)"/>
<path d="M0 0 C0.33 0 0.66 0 1 0 C1 1.65 1 3.3 1 5 C0.67 5 0.34 5 0 5 C0 3.35 0 1.7 0 0 Z " fill="#313032" transform="translate(360,537)"/>
<path d="M0 0 C0.66 0.66 1.32 1.32 2 2 C1.01 1.67 0.02 1.34 -1 1 C-0.67 0.67 -0.34 0.34 0 0 Z " fill="#343435" transform="translate(390,552)"/>
<path d="M0 0 C1 4 1 4 1 4 Z " fill="#303031" transform="translate(360,530)"/>
<path d="M0 0 C1 4 1 4 1 4 Z " fill="#2F2E30" transform="translate(360,525)"/>
<path d="M0 0 C3 1 3 1 3 1 Z " fill="#3D404A" transform="translate(685,575)"/>
<path d="M0 0 C3 1 3 1 3 1 Z " fill="#363639" transform="translate(381,575)"/>
<path d="M0 0 C3 1 3 1 3 1 Z " fill="#3C3C3B" transform="translate(85,575)"/>
<path d="" fill="#323132" transform="translate(0,0)"/>
<path d="" fill="#2F2F2F" transform="translate(0,0)"/>
<path d="" fill="#323133" transform="translate(0,0)"/>
<path d="M0 0 C3 1 3 1 3 1 Z " fill="#353536" transform="translate(784,499)"/>
<path d="M0 0 C3 1 3 1 3 1 Z " fill="#343333" transform="translate(214,499)"/>
<path d="M0 0 C3 1 3 1 3 1 Z " fill="#3B3C3F" transform="translate(371,457)"/>
<path d="M0 0 C2 1 2 1 2 1 Z " fill="#38383A" transform="translate(918,575)"/>
<path d="" fill="#373738" transform="translate(0,0)"/>
<path d="M0 0 C2 1 2 1 2 1 Z " fill="#3A383A" transform="translate(900,575)"/>
<path d="M0 0 C2 1 2 1 2 1 Z " fill="#39393B" transform="translate(873,575)"/>
<path d="" fill="#363639" transform="translate(0,0)"/>
<path d="M0 0 C2 1 2 1 2 1 Z " fill="#39383A" transform="translate(806,575)"/>
<path d="M0 0 C2 1 2 1 2 1 Z " fill="#383A3E" transform="translate(742,575)"/>
<path d="M0 0 C2 1 2 1 2 1 Z " fill="#40506E" transform="translate(661,575)"/>
<path d="" fill="#41557C" transform="translate(0,0)"/>
<path d="M0 0 C2 1 2 1 2 1 Z " fill="#3A3837" transform="translate(230,575)"/>
<path d="" fill="#3A393A" transform="translate(0,0)"/>
<path d="M0 0 C2 1 2 1 2 1 Z " fill="#383537" transform="translate(198,574)"/>
<path d="" fill="#383637" transform="translate(0,0)"/>
<path d="" fill="#383538" transform="translate(0,0)"/>
<path d="" fill="#437BE0" transform="translate(0,0)"/>
<path d="" fill="#373637" transform="translate(0,0)"/>
<path d="M0 0 C2 1 2 1 2 1 Z " fill="#333534" transform="translate(885,554)"/>
<path d="" fill="#353435" transform="translate(0,0)"/>
<path d="" fill="#333434" transform="translate(0,0)"/>
<path d="" fill="#3F76D2" transform="translate(0,0)"/>
<path d="" fill="#4074D2" transform="translate(0,0)"/>
<path d="" fill="#373A3E" transform="translate(0,0)"/>
<path d="" fill="#36373E" transform="translate(0,0)"/>
<path d="" fill="#353637" transform="translate(0,0)"/>
<path d="" fill="#2F2E2E" transform="translate(0,0)"/>
<path d="M0 0 C2 1 2 1 2 1 Z " fill="#353436" transform="translate(896,500)"/>
<path d="M0 0 C2 1 2 1 2 1 Z " fill="#343234" transform="translate(221,500)"/>
<path d="" fill="#363536" transform="translate(0,0)"/>
<path d="M0 0 C2 1 2 1 2 1 Z " fill="#39393A" transform="translate(806,480)"/>
<path d="M0 0 C2 1 2 1 2 1 Z " fill="#373839" transform="translate(324,480)"/>
<path d="M0 0 C2 1 2 1 2 1 Z " fill="#38393B" transform="translate(288,480)"/>
<path d="M0 0 C2 1 2 1 2 1 Z " fill="#383A40" transform="translate(447,471)"/>
<path d="" fill="#363739" transform="translate(0,0)"/>
<path d="" fill="#3A383D" transform="translate(0,0)"/>
<path d="" fill="#44587E" transform="translate(0,0)"/>
<path d="M0 0 C2 1 2 1 2 1 Z " fill="#3F3E42" transform="translate(362,457)"/>
<path d="M0 0 C2 1 2 1 2 1 Z " fill="#4782E1" transform="translate(577,450)"/>
<path d="M0 0 C2 1 2 1 2 1 Z " fill="#4981E0" transform="translate(549,450)"/>
<path d="M0 0 C2 1 2 1 2 1 Z " fill="#4481E2" transform="translate(560,448)"/>
<path d="" fill="#6A6B6A" transform="translate(0,0)"/>
<path d="" fill="#4976C2" transform="translate(0,0)"/>
<path d="" fill="#4179DB" transform="translate(0,0)"/>
<path d="" fill="#4079E1" transform="translate(0,0)"/>
<path d="" fill="#42403F" transform="translate(0,0)"/>
<path d="" fill="#39383B" transform="translate(0,0)"/>
<path d="" fill="#3D3D3E" transform="translate(0,0)"/>
<path d="" fill="#3F4042" transform="translate(0,0)"/>
<path d="" fill="#363B44" transform="translate(0,0)"/>
<path d="" fill="#3F7ADE" transform="translate(0,0)"/>
<path d="" fill="#3F4349" transform="translate(0,0)"/>
<path d="" fill="#3F4045" transform="translate(0,0)"/>
<path d="" fill="#404145" transform="translate(0,0)"/>
<path d="" fill="#383939" transform="translate(0,0)"/>
<path d="" fill="#3A3739" transform="translate(0,0)"/>
<path d="" fill="#3A3A3A" transform="translate(0,0)"/>
<path d="" fill="#39373A" transform="translate(0,0)"/>
<path d="" fill="#3A3B39" transform="translate(0,0)"/>
<path d="" fill="#393837" transform="translate(0,0)"/>
<path d="" fill="#39383B" transform="translate(0,0)"/>
<path d="" fill="#3B3C3A" transform="translate(0,0)"/>
<path d="" fill="#3C3B3C" transform="translate(0,0)"/>
<path d="" fill="#3A3A39" transform="translate(0,0)"/>
<path d="" fill="#3B393B" transform="translate(0,0)"/>
<path d="" fill="#38393B" transform="translate(0,0)"/>
<path d="" fill="#3B3A3C" transform="translate(0,0)"/>
<path d="" fill="#3A3B3F" transform="translate(0,0)"/>
<path d="" fill="#37393C" transform="translate(0,0)"/>
<path d="" fill="#3B3C41" transform="translate(0,0)"/>
<path d="" fill="#3C3F49" transform="translate(0,0)"/>
<path d="" fill="#3B424B" transform="translate(0,0)"/>
<path d="" fill="#414F70" transform="translate(0,0)"/>
<path d="" fill="#4279DD" transform="translate(0,0)"/>
<path d="" fill="#3F434B" transform="translate(0,0)"/>
<path d="" fill="#3B3A3A" transform="translate(0,0)"/>
<path d="" fill="#373736" transform="translate(0,0)"/>
<path d="" fill="#3A393A" transform="translate(0,0)"/>
<path d="" fill="#393939" transform="translate(0,0)"/>
<path d="" fill="#393839" transform="translate(0,0)"/>
<path d="" fill="#39393B" transform="translate(0,0)"/>
<path d="" fill="#39393A" transform="translate(0,0)"/>
<path d="" fill="#38393B" transform="translate(0,0)"/>
<path d="" fill="#3F5580" transform="translate(0,0)"/>
<path d="" fill="#383938" transform="translate(0,0)"/>
<path d="" fill="#37383A" transform="translate(0,0)"/>
<path d="" fill="#373538" transform="translate(0,0)"/>
<path d="" fill="#37393B" transform="translate(0,0)"/>
<path d="" fill="#383637" transform="translate(0,0)"/>
<path d="" fill="#37383C" transform="translate(0,0)"/>
<path d="" fill="#3A3C3B" transform="translate(0,0)"/>
<path d="" fill="#383736" transform="translate(0,0)"/>
<path d="" fill="#3E7AE4" transform="translate(0,0)"/>
<path d="" fill="#407EE6" transform="translate(0,0)"/>
<path d="" fill="#363637" transform="translate(0,0)"/>
<path d="" fill="#353536" transform="translate(0,0)"/>
<path d="" fill="#3D7AE4" transform="translate(0,0)"/>
<path d="" fill="#3F7CE0" transform="translate(0,0)"/>
<path d="" fill="#343436" transform="translate(0,0)"/>
<path d="" fill="#333435" transform="translate(0,0)"/>
<path d="" fill="#373637" transform="translate(0,0)"/>
<path d="" fill="#343436" transform="translate(0,0)"/>
<path d="" fill="#4178DA" transform="translate(0,0)"/>
<path d="" fill="#383635" transform="translate(0,0)"/>
<path d="" fill="#4279DA" transform="translate(0,0)"/>
<path d="" fill="#353435" transform="translate(0,0)"/>
<path d="" fill="#353135" transform="translate(0,0)"/>
<path d="" fill="#333332" transform="translate(0,0)"/>
<path d="" fill="#37383E" transform="translate(0,0)"/>
<path d="" fill="#333234" transform="translate(0,0)"/>
<path d="" fill="#353333" transform="translate(0,0)"/>
<path d="" fill="#383839" transform="translate(0,0)"/>
<path d="" fill="#373637" transform="translate(0,0)"/>
<path d="" fill="#353333" transform="translate(0,0)"/>
<path d="" fill="#36363C" transform="translate(0,0)"/>
<path d="" fill="#37363E" transform="translate(0,0)"/>
<path d="" fill="#343334" transform="translate(0,0)"/>
<path d="" fill="#353535" transform="translate(0,0)"/>
<path d="" fill="#323232" transform="translate(0,0)"/>
<path d="" fill="#343434" transform="translate(0,0)"/>
<path d="" fill="#343137" transform="translate(0,0)"/>
<path d="" fill="#343335" transform="translate(0,0)"/>
<path d="" fill="#35393D" transform="translate(0,0)"/>
<path d="" fill="#3B414B" transform="translate(0,0)"/>
<path d="" fill="#343638" transform="translate(0,0)"/>
<path d="" fill="#4083ED" transform="translate(0,0)"/>
<path d="" fill="#4382EE" transform="translate(0,0)"/>
<path d="" fill="#373634" transform="translate(0,0)"/>
<path d="" fill="#343536" transform="translate(0,0)"/>
<path d="" fill="#363435" transform="translate(0,0)"/>
<path d="" fill="#3D404B" transform="translate(0,0)"/>
<path d="" fill="#313134" transform="translate(0,0)"/>
<path d="" fill="#32302F" transform="translate(0,0)"/>
<path d="" fill="#333434" transform="translate(0,0)"/>
<path d="" fill="#333033" transform="translate(0,0)"/>
<path d="" fill="#407FF1" transform="translate(0,0)"/>
<path d="" fill="#3F82EE" transform="translate(0,0)"/>
<path d="" fill="#2E2E2F" transform="translate(0,0)"/>
<path d="" fill="#4371CA" transform="translate(0,0)"/>
<path d="" fill="#323030" transform="translate(0,0)"/>
<path d="" fill="#322F30" transform="translate(0,0)"/>
<path d="" fill="#343434" transform="translate(0,0)"/>
<path d="" fill="#323232" transform="translate(0,0)"/>
<path d="" fill="#313034" transform="translate(0,0)"/>
<path d="" fill="#38393E" transform="translate(0,0)"/>
<path d="" fill="#3F80F0" transform="translate(0,0)"/>
<path d="" fill="#4175D3" transform="translate(0,0)"/>
<path d="" fill="#333335" transform="translate(0,0)"/>
<path d="" fill="#353234" transform="translate(0,0)"/>
<path d="" fill="#4072D1" transform="translate(0,0)"/>
<path d="" fill="#36383D" transform="translate(0,0)"/>
<path d="" fill="#3B3D46" transform="translate(0,0)"/>
<path d="" fill="#4076D0" transform="translate(0,0)"/>
<path d="" fill="#4177D3" transform="translate(0,0)"/>
<path d="" fill="#4374CB" transform="translate(0,0)"/>
<path d="" fill="#333133" transform="translate(0,0)"/>
<path d="" fill="#333132" transform="translate(0,0)"/>
<path d="" fill="#333134" transform="translate(0,0)"/>
<path d="" fill="#383B43" transform="translate(0,0)"/>
<path d="" fill="#313233" transform="translate(0,0)"/>
<path d="" fill="#38393F" transform="translate(0,0)"/>
<path d="" fill="#343333" transform="translate(0,0)"/>
<path d="" fill="#333235" transform="translate(0,0)"/>
<path d="" fill="#363335" transform="translate(0,0)"/>
<path d="" fill="#343333" transform="translate(0,0)"/>
<path d="" fill="#343133" transform="translate(0,0)"/>
<path d="" fill="#333330" transform="translate(0,0)"/>
<path d="" fill="#373636" transform="translate(0,0)"/>
<path d="" fill="#353636" transform="translate(0,0)"/>
<path d="" fill="#313134" transform="translate(0,0)"/>
<path d="" fill="#313333" transform="translate(0,0)"/>
<path d="" fill="#333435" transform="translate(0,0)"/>
<path d="" fill="#313133" transform="translate(0,0)"/>
<path d="" fill="#383938" transform="translate(0,0)"/>
<path d="" fill="#323131" transform="translate(0,0)"/>
<path d="" fill="#333234" transform="translate(0,0)"/>
<path d="" fill="#343433" transform="translate(0,0)"/>
<path d="" fill="#333031" transform="translate(0,0)"/>
<path d="" fill="#353335" transform="translate(0,0)"/>
<path d="" fill="#313135" transform="translate(0,0)"/>
<path d="" fill="#393D41" transform="translate(0,0)"/>
<path d="" fill="#4080E9" transform="translate(0,0)"/>
<path d="" fill="#363435" transform="translate(0,0)"/>
<path d="" fill="#313133" transform="translate(0,0)"/>
<path d="" fill="#333234" transform="translate(0,0)"/>
<path d="" fill="#333233" transform="translate(0,0)"/>
<path d="" fill="#373635" transform="translate(0,0)"/>
<path d="" fill="#3A3D45" transform="translate(0,0)"/>
<path d="" fill="#353335" transform="translate(0,0)"/>
<path d="" fill="#363437" transform="translate(0,0)"/>
<path d="" fill="#343335" transform="translate(0,0)"/>
<path d="" fill="#353333" transform="translate(0,0)"/>
<path d="" fill="#353434" transform="translate(0,0)"/>
<path d="" fill="#353536" transform="translate(0,0)"/>
<path d="" fill="#353136" transform="translate(0,0)"/>
<path d="" fill="#353436" transform="translate(0,0)"/>
<path d="" fill="#323233" transform="translate(0,0)"/>
<path d="" fill="#323331" transform="translate(0,0)"/>
<path d="" fill="#3A3D43" transform="translate(0,0)"/>
<path d="" fill="#3E76D1" transform="translate(0,0)"/>
<path d="" fill="#353334" transform="translate(0,0)"/>
<path d="" fill="#353333" transform="translate(0,0)"/>
<path d="" fill="#417CE9" transform="translate(0,0)"/>
<path d="" fill="#38373A" transform="translate(0,0)"/>
<path d="" fill="#3A3D45" transform="translate(0,0)"/>
<path d="" fill="#353438" transform="translate(0,0)"/>
<path d="" fill="#3C3E44" transform="translate(0,0)"/>
<path d="" fill="#3E3F46" transform="translate(0,0)"/>
<path d="" fill="#35393F" transform="translate(0,0)"/>
<path d="" fill="#4373D1" transform="translate(0,0)"/>
<path d="" fill="#3A3A3B" transform="translate(0,0)"/>
<path d="" fill="#383737" transform="translate(0,0)"/>
<path d="" fill="#363636" transform="translate(0,0)"/>
<path d="" fill="#3A353B" transform="translate(0,0)"/>
<path d="" fill="#373838" transform="translate(0,0)"/>
<path d="" fill="#414551" transform="translate(0,0)"/>
<path d="" fill="#3B3A3B" transform="translate(0,0)"/>
<path d="" fill="#4478D2" transform="translate(0,0)"/>
<path d="" fill="#3C3B3B" transform="translate(0,0)"/>
<path d="" fill="#36383A" transform="translate(0,0)"/>
<path d="" fill="#38393B" transform="translate(0,0)"/>
<path d="" fill="#383938" transform="translate(0,0)"/>
<path d="" fill="#414A57" transform="translate(0,0)"/>
<path d="" fill="#4582EE" transform="translate(0,0)"/>
<path d="" fill="#4572C4" transform="translate(0,0)"/>
<path d="" fill="#413F40" transform="translate(0,0)"/>
<path d="" fill="#3C383E" transform="translate(0,0)"/>
<path d="" fill="#4275C4" transform="translate(0,0)"/>
<path d="" fill="#363839" transform="translate(0,0)"/>
<path d="" fill="#39393C" transform="translate(0,0)"/>
<path d="" fill="#393A3B" transform="translate(0,0)"/>
<path d="" fill="#39383A" transform="translate(0,0)"/>
<path d="" fill="#3D7EED" transform="translate(0,0)"/>
<path d="" fill="#363841" transform="translate(0,0)"/>
<path d="" fill="#343636" transform="translate(0,0)"/>
<path d="" fill="#414242" transform="translate(0,0)"/>
<path d="" fill="#3F4040" transform="translate(0,0)"/>
<path d="" fill="#3D3D3D" transform="translate(0,0)"/>
<path d="" fill="#3E3D42" transform="translate(0,0)"/>
<path d="" fill="#3F7EEE" transform="translate(0,0)"/>
<path d="" fill="#4283EF" transform="translate(0,0)"/>
<path d="" fill="#4183F3" transform="translate(0,0)"/>
<path d="" fill="#4085F0" transform="translate(0,0)"/>
<path d="" fill="#3B3A39" transform="translate(0,0)"/>
<path d="" fill="#424A5F" transform="translate(0,0)"/>
<path d="" fill="#3E414F" transform="translate(0,0)"/>
<path d="" fill="#4174D2" transform="translate(0,0)"/>
<path d="" fill="#38373A" transform="translate(0,0)"/>
<path d="" fill="#4176D3" transform="translate(0,0)"/>
<path d="" fill="#457CDD" transform="translate(0,0)"/>
<path d="" fill="#37393A" transform="translate(0,0)"/>
<path d="" fill="#3E7DDD" transform="translate(0,0)"/>
<path d="" fill="#373E3F" transform="translate(0,0)"/>
<path d="" fill="#3E3C3D" transform="translate(0,0)"/>
<path d="" fill="#3A3C3E" transform="translate(0,0)"/>
<path d="" fill="#3D3C3F" transform="translate(0,0)"/>
<path d="" fill="#3F4142" transform="translate(0,0)"/>
<path d="" fill="#467EDF" transform="translate(0,0)"/>
<path d="" fill="#417BD9" transform="translate(0,0)"/>
<path d="" fill="#3F4141" transform="translate(0,0)"/>
<path d="" fill="#4280E5" transform="translate(0,0)"/>
<path d="" fill="#4783E1" transform="translate(0,0)"/>
<path d="" fill="#475777" transform="translate(0,0)"/>
</svg>
